<svg id="Capa_1" enable-background="new 0 0 512 512" height="512" viewBox="0 0 512 512" width="512" xmlns="http://www.w3.org/2000/svg"><g><g><g><g><g><g><g><g><g><circle cx="256" cy="256" fill="#ffce00" r="256"/></g></g></g></g></g></g></g></g><path d="m512 256c0-13.265-1.009-26.293-2.954-39.014l-121.753-121.753-12.262 53.893-61.691-61.692-188.633 329.333 92.279 92.279c12.721 1.945 25.749 2.954 39.014 2.954 141.385 0 256-114.615 256-256z" fill="#ffa300"/><g><path d="m124.707 95.233h262.586v321.534h-262.586z" fill="#636978"/></g><g><path d="m256.042 95.233h131.251v321.534h-131.251z" fill="#414952"/></g><g><path d="m158.604 95.233h194.792v284.843h-194.792z" fill="#fff"/></g><g><path d="m256.042 95.233h97.354v284.843h-97.354z" fill="#e9edf5"/></g><g><g><g><g><path d="m188.286 222.904c0-20.298 16.455-36.753 36.753-36.753 13.002 0 24.469 6.72 31.003 16.908 6.534-10.188 17.916-16.908 30.918-16.908 20.298 0 36.753 16.455 36.753 36.753 0 34.659-67.671 83.77-67.671 83.77s-67.756-47.669-67.756-83.77z" fill="#ff636e"/></g></g></g></g><g><g><g><g><path d="m323.714 222.904c0-20.298-16.455-36.753-36.753-36.753-12.975 0-24.378 6.756-30.918 16.908v103.615c1.772-1.292 67.671-49.577 67.671-83.77z" fill="#f03049"/></g></g></g></g><g><path d="m198.661 87.434h114.679v41.701h-114.679z" fill="#7e8596"/></g><g><path d="m256.042 87.434h57.297v41.701h-57.297z" fill="#636978"/></g></g></svg>