<?xml version="1.0"?>
<svg xmlns="http://www.w3.org/2000/svg" height="512px" viewBox="0 -51 512 512" width="512px" class=""><g><path d="m339 195.503906c0-9-2.1875-17.492187-6.035156-25h124.035156c30.328125 0 55-24.671875 55-55s-24.671875-55-55-55h-175.523438l-103.65625-50.738281c-26.855468-13.148437-58.859374-13.011719-85.605468.359375l-50.757813 25.378906c-25.570312 12.785156-41.457031 38.492188-41.457031 67.082032v232.917968c0 41.355469 33.644531 75 75 75h209c30.328125 0 55-24.671875 55-55 0-15.75-6.664062-29.964844-17.308594-40 10.644532-10.035156 17.308594-24.25 17.308594-40s-6.664062-29.964844-17.308594-40c10.644532-10.035156 17.308594-24.25 17.308594-40zm-111 55h56c13.785156 0 25 11.214844 25 25s-11.214844 25-25 25h-56c-8.285156 0-15 6.714844-15 15s6.714844 15 15 15h56c13.785156 0 25 11.214844 25 25s-11.214844 25-25 25h-209c-24.8125 0-45-20.1875-45-45v-232.917968c0-17.15625 9.53125-32.578126 24.875-40.25l50.757812-25.375c18.433594-9.21875 40.488282-9.3125 59-.25l48.605469 23.792968h-35.238281c-8.285156 0-15 6.714844-15 15s6.714844 15 15 15h279c13.785156 0 25 11.214844 25 25 0 12.074219-8.601562 22.175782-20 24.496094v-14.496094c0-8.285156-6.714844-15-15-15s-15 6.714844-15 15v15h-204c-8.285156 0-15 6.714844-15 15s6.714844 15 15 15h56c13.785156 0 25 11.214844 25 25s-11.214844 25-25 25h-56c-8.285156 0-15 6.714844-15 15s6.714844 15 15 15zm0 0" data-original="#000000" class="active-path" data-old_color="#000000" fill="#000F3F"/><path d="m492.960938 254.542969c-9.242188-9.242188-34.316407-38.5-34.566407-38.796875-2.851562-3.324219-7.011719-5.242188-11.394531-5.242188s-8.542969 1.917969-11.394531 5.242188c-.25.292968-25.324219 29.554687-34.570313 38.796875-25.339844 25.34375-25.339844 66.578125 0 91.921875 12.675782 12.671875 29.320313 19.007812 45.964844 19.007812s33.289062-6.335937 45.960938-19.007812c25.34375-25.34375 25.34375-66.578125 0-91.921875zm-21.210938 70.710937c-6.613281 6.609375-15.402344 10.25-24.75 10.25s-18.136719-3.640625-24.75-10.25c-13.644531-13.648437-13.644531-35.851562 0-49.5 5.773438-5.769531 16.476562-17.851562 24.75-27.328125 8.273438 9.476563 18.976562 21.554688 24.75 27.328125 13.644531 13.648438 13.644531 35.851563 0 49.5zm0 0" data-original="#000000" class="active-path" data-old_color="#000000" fill="#000F3F"/></g> </svg>
