<?xml version="1.0" encoding="UTF-8" standalone="no"?>
<!DOCTYPE svg PUBLIC "-//W3C//DTD SVG 1.1//EN" "http://www.w3.org/Graphics/SVG/1.1/DTD/svg11.dtd">
<svg version="1.1" xmlns="http://www.w3.org/2000/svg" xmlns:xlink="http://www.w3.org/1999/xlink" preserveAspectRatio="xMidYMid meet" viewBox="0 0 640 640" width="640" height="640"><defs><path d="M338.7 68.92C197.32 68.92 82.7 183.53 82.7 324.92C82.7 466.3 197.32 580.92 338.7 580.92C480.09 580.92 594.7 466.3 594.7 324.92C594.7 183.53 480.09 68.92 338.7 68.92Z" id="aMv5u2e3s"></path><path d="M493.1 185.69L460.14 152.73L428.14 211.93L484.81 268.6L484.39 272.79L364.34 152.73L314.27 197.46L314.27 313.93L243.29 242.95L178.12 310.37L213.16 345.41L225.03 502.16C270.63 547.77 295.96 573.1 301.03 578.17C313.32 579.98 325.9 580.92 338.7 580.92C480.09 580.92 594.7 466.3 594.7 324.92C594.7 309.2 593.29 293.82 590.58 278.89C584.1 272.42 551.74 240.05 493.49 181.8L493.1 185.69Z" id="a6dRrG49s6"></path><path d="M459.1 166.33C457.66 166.33 450.49 166.33 437.59 166.33L437.59 198.33C450.49 198.33 457.66 198.33 459.1 198.33C463.15 198.33 466.86 200 469.54 203.03C472.23 206.06 473.44 209.95 472.96 213.97C471.58 225.38 460.57 316.67 459.2 328.08C458.35 335.09 452.39 340.37 445.33 340.37C435.51 340.37 356.96 340.37 347.14 340.37C340.09 340.37 334.13 335.09 333.28 328.08C331.9 316.67 320.89 225.38 319.52 213.97C319.03 209.95 320.25 206.06 322.93 203.03C325.62 200 329.33 198.33 333.38 198.33C334.81 198.33 341.98 198.33 354.88 198.33L354.88 166.33C341.98 166.33 334.81 166.33 333.38 166.33C320.24 166.33 307.71 171.97 298.99 181.8C290.27 191.63 286.17 204.75 287.75 217.8C289.12 229.21 300.13 320.5 301.51 331.91C304.29 354.98 323.91 372.37 347.14 372.37C349.35 372.37 360.38 372.37 380.24 372.37C380.24 402.33 380.24 418.97 380.24 422.3C380.24 465.68 344.95 500.97 301.56 500.97C258.18 500.97 222.89 465.68 222.89 422.3C222.89 414.04 222.89 372.77 222.89 298.48L190.89 298.48C190.89 372.77 190.89 414.04 190.89 422.3C190.89 483.32 240.54 532.97 301.56 532.97C362.59 532.97 412.24 483.32 412.24 422.3C412.24 418.97 412.24 402.33 412.24 372.37C432.1 372.37 443.13 372.37 445.33 372.37C468.57 372.37 488.18 354.98 490.97 331.91C492.34 320.5 503.35 229.21 504.73 217.8C506.3 204.75 502.2 191.63 493.49 181.8C484.77 171.97 472.24 166.33 459.1 166.33Z" id="f9j4flohH"></path><path d="M338.82 166.33L354.88 166.33L354.88 198.33L338.82 198.33L338.82 166.33Z" id="d3FpiWSKj3"></path><path d="M459.1 166.33C457.66 166.33 450.49 166.33 437.59 166.33L437.59 198.33C450.49 198.33 457.66 198.33 459.1 198.33C463.15 198.33 466.86 200 469.54 203.03C472.23 206.06 473.44 209.95 472.96 213.97C471.58 225.38 460.57 316.67 459.2 328.08C458.35 335.09 452.39 340.37 445.33 340.37C442.08 340.37 425.84 340.37 396.59 340.37C396.59 423.52 396.59 469.72 396.59 478.96C406.52 462.37 412.24 442.99 412.24 422.3C412.24 418.97 412.24 402.33 412.24 372.37C432.09 372.37 443.13 372.37 445.33 372.37C468.57 372.37 488.18 354.98 490.97 331.91C492.34 320.5 503.35 229.21 504.73 217.8C506.3 204.75 502.2 191.63 493.49 181.8C484.77 171.97 472.24 166.33 459.1 166.33Z" id="ddrPLSTnN"></path><path d="M332.34 152.73L364.34 152.73L364.34 211.93L332.34 211.93L332.34 152.73Z" id="a85jR0grE"></path><path d="M428.14 152.73L460.14 152.73L460.14 211.93L428.14 211.93L428.14 152.73Z" id="cBbo3iv3H"></path><path d="M206.89 225.79C180.83 225.79 159.7 246.91 159.7 272.97C159.7 299.04 180.83 320.16 206.89 320.16C232.95 320.16 254.08 299.04 254.08 272.97C254.08 246.91 232.95 225.79 206.89 225.79Z" id="f25SjWjFdv"></path></defs><g><g><g><use xlink:href="#aMv5u2e3s" opacity="1" fill="#4f39bf" fill-opacity="1"></use><g><use xlink:href="#aMv5u2e3s" opacity="1" fill-opacity="0" stroke="#000000" stroke-width="1" stroke-opacity="0"></use></g></g><g><use xlink:href="#a6dRrG49s6" opacity="1" fill="#34238c" fill-opacity="1"></use><g><use xlink:href="#a6dRrG49s6" opacity="1" fill-opacity="0" stroke="#000000" stroke-width="1" stroke-opacity="0"></use></g></g><g><use xlink:href="#f9j4flohH" opacity="1" fill="#ffffff" fill-opacity="1"></use><g><use xlink:href="#f9j4flohH" opacity="1" fill-opacity="0" stroke="#000000" stroke-width="1" stroke-opacity="0"></use></g></g><g><use xlink:href="#d3FpiWSKj3" opacity="1" fill="#ffffff" fill-opacity="1"></use><g><use xlink:href="#d3FpiWSKj3" opacity="1" fill-opacity="0" stroke="#000000" stroke-width="1" stroke-opacity="0"></use></g></g><g><use xlink:href="#ddrPLSTnN" opacity="1" fill="#e9edf5" fill-opacity="1"></use><g><use xlink:href="#ddrPLSTnN" opacity="1" fill-opacity="0" stroke="#000000" stroke-width="1" stroke-opacity="0"></use></g></g><g><use xlink:href="#a85jR0grE" opacity="1" fill="#00aaaa" fill-opacity="1"></use><g><use xlink:href="#a85jR0grE" opacity="1" fill-opacity="0" stroke="#000000" stroke-width="1" stroke-opacity="0"></use></g></g><g><use xlink:href="#cBbo3iv3H" opacity="1" fill="#00aaaa" fill-opacity="1"></use><g><use xlink:href="#cBbo3iv3H" opacity="1" fill-opacity="0" stroke="#000000" stroke-width="1" stroke-opacity="0"></use></g></g><g><use xlink:href="#f25SjWjFdv" opacity="1" fill="#00aaaa" fill-opacity="1"></use><g><use xlink:href="#f25SjWjFdv" opacity="1" fill-opacity="0" stroke="#000000" stroke-width="1" stroke-opacity="0"></use></g></g></g></g></svg>