<?xml version="1.0" encoding="UTF-8" standalone="no"?>
<!DOCTYPE svg PUBLIC "-//W3C//DTD SVG 1.1//EN" "http://www.w3.org/Graphics/SVG/1.1/DTD/svg11.dtd">
<svg version="1.1" xmlns="http://www.w3.org/2000/svg" xmlns:xlink="http://www.w3.org/1999/xlink" preserveAspectRatio="xMidYMid meet" viewBox="0 0 640 640" width="640" height="640"><defs><path d="M543.09 257.48C522.62 249.63 509.01 229.98 508.71 207.87C508.71 207.38 508.7 206.9 508.69 206.41C506.81 125.14 439.53 60.02 359.04 61.42C311.56 62.24 269.57 85.77 243.25 121.72C220.59 152.68 185.31 172.01 147.19 171.99C146.07 171.99 144.95 172 143.83 172.03C66.66 173.73 1.04 240.59 0.01 318.51C-1.08 401.49 65.2 469.09 147.11 469.09C210.61 469.09 264.7 428.47 285.31 371.57C290.7 356.68 306.68 348.7 321.8 352.98C321.99 353.03 322.18 353.08 322.37 353.14C336.2 356.99 345.37 370.3 344.24 384.75C342.73 404.11 344.97 424.08 351.47 443.64C377.04 520.57 460.13 562.79 536.53 537.62C614.69 511.86 656.65 426.64 630.15 348.35C615.41 304.79 582.62 272.64 543.09 257.48Z" id="j2ozS9U27G"></path><linearGradient id="gradientaiAnEi6l4" gradientUnits="userSpaceOnUse" x1="281.43" y1="303.15" x2="1077.89" y2="303.15"><stop style="stop-color: #d5d9ff;stop-opacity: 1" offset="0.07011211%"></stop><stop style="stop-color: #ffdfff;stop-opacity: 1" offset="51.12%"></stop><stop style="stop-color: #d9ceff;stop-opacity: 1" offset="100%"></stop></linearGradient><path d="M133.57 73.65C132.47 72.55 123.69 63.77 122.59 62.67C121.65 61.73 121.13 60.46 121.13 59.13C121.13 57.81 121.65 56.54 122.59 55.6C123.69 54.5 132.47 45.72 133.57 44.62C134.51 43.68 135.78 43.15 137.11 43.15C138.43 43.15 139.7 43.68 140.64 44.62C141.74 45.72 150.52 54.5 151.62 55.6C153.57 57.55 153.57 60.72 151.62 62.67C150.52 63.77 141.74 72.55 140.64 73.65C139.67 74.63 138.39 75.11 137.11 75.11C135.83 75.11 134.55 74.63 133.57 73.65ZM133.2 59.13L137.11 63.04L141.02 59.13L137.11 55.22L133.2 59.13Z" id="b47I9ux5u2"></path><path d="M290.32 105.24C265.31 105.24 245.05 84.97 245.05 59.97C245.05 56.66 245.41 53.43 246.08 50.32C260.21 46.83 274.98 44.99 290.19 44.99C305.5 44.99 320.37 46.85 334.58 50.39C335.25 53.48 335.6 56.68 335.6 59.97C335.6 84.97 315.33 105.24 290.32 105.24Z" id="i50T5C9MQq"></path><path d="M580.8 178.65C580.8 175.34 578.11 172.65 574.8 172.65C572.04 172.65 569.8 170.41 569.8 167.65C569.8 164.88 572.04 162.65 574.8 162.65C578.11 162.65 580.8 159.95 580.8 156.64C580.8 153.88 583.04 151.64 585.8 151.64C588.56 151.64 590.8 153.88 590.8 156.64C590.8 159.95 593.49 162.65 596.8 162.65C599.57 162.65 601.8 164.88 601.8 167.65C601.8 170.41 599.57 172.65 596.8 172.65C593.49 172.65 590.8 175.34 590.8 178.65C590.8 181.41 588.56 183.65 585.8 183.65C583.04 183.65 580.8 181.41 580.8 178.65Z" id="a2sceqPX44"></path><path d="M522.36 101.7C521.27 100.6 512.48 91.82 511.38 90.72C509.43 88.77 509.43 85.6 511.38 83.65C512.48 82.55 521.26 73.76 522.36 72.67C523.3 71.73 524.57 71.2 525.9 71.2C527.22 71.2 528.5 71.73 529.43 72.67C530.53 73.76 539.32 82.55 540.41 83.65C541.35 84.59 541.88 85.86 541.88 87.18C541.88 88.51 541.35 89.78 540.41 90.72C539.32 91.82 530.53 100.6 529.43 101.7C528.46 102.67 527.18 103.16 525.9 103.16C524.62 103.16 523.34 102.67 522.36 101.7ZM521.99 87.18L525.9 91.09L529.81 87.18L525.9 83.27L521.99 87.18Z" id="a5ttpOd8N7"></path><path d="M290.32 -0.3C265.32 -0.3 245.04 19.98 245.04 44.98C245.04 69.99 265.32 90.26 290.32 90.26C315.33 90.26 335.6 69.99 335.6 44.98C335.6 19.98 315.33 -0.3 290.32 -0.3Z" id="c2wk2bxnMx"></path><path d="M75.6 498.62C74.5 497.53 65.71 488.74 64.62 487.64C63.68 486.71 63.15 485.43 63.15 484.11C63.15 482.78 63.68 481.51 64.62 480.57C65.71 479.47 74.5 470.69 75.6 469.59C77.55 467.64 80.72 467.64 82.67 469.59C83.77 470.69 92.55 479.48 93.65 480.57C95.6 482.53 95.6 485.69 93.65 487.64C92.55 488.74 83.77 497.53 82.67 498.62C81.73 499.56 80.46 500.09 79.13 500.09C77.81 500.09 76.53 499.56 75.6 498.62ZM75.22 484.11L79.13 488.02L83.04 484.11L79.13 480.2L75.22 484.11Z" id="c2jQuboAHq"></path><path d="M84.59 252.92C60.46 252.92 40.75 234.05 39.39 210.27C50.42 192.03 64.53 175.87 81 162.49C82.19 162.4 83.38 162.35 84.59 162.35C109.6 162.35 129.86 182.63 129.86 207.64C129.86 232.64 109.6 252.92 84.59 252.92Z" id="a5YSKp8Mf2"></path><path d="M218.7 493.65C193.69 493.65 173.42 513.92 173.42 538.93C173.42 563.94 193.69 584.21 218.7 584.21C243.7 584.21 263.97 563.94 263.97 538.93C263.97 513.92 243.7 493.65 218.7 493.65Z" id="a5uRAUFLtv"></path><path d="M79.13 151.64C54.12 151.64 33.85 171.91 33.85 196.92C33.85 221.93 54.12 242.2 79.13 242.2C104.14 242.2 124.41 221.93 124.41 196.92C124.41 171.91 104.14 151.64 79.13 151.64Z" id="c3uOpV6zDd"></path><path d="M289.12 148.07C272.99 130.46 264.03 120.68 262.24 118.72C258.64 114.79 253.55 112.55 248.21 112.55C239.27 112.55 167.7 112.55 158.75 112.55C153.5 112.55 149.24 116.81 149.24 122.06C149.24 138.07 149.24 218.12 149.24 362.22L516.52 362.22C516.52 239.43 516.52 171.22 516.52 157.58C516.52 152.33 512.26 148.07 507.01 148.07C477.96 148.07 405.33 148.07 289.12 148.07Z" id="dRAZQg040"></path><path d="M217.08 284.66C211.82 284.66 207.57 280.4 207.57 275.15C207.57 265.66 207.57 189.75 207.57 180.27C207.57 175.01 211.82 170.75 217.08 170.75C240.24 170.75 425.53 170.75 448.69 170.75C453.94 170.75 458.2 175.01 458.2 180.27C458.2 189.75 458.2 265.66 458.2 275.15C458.2 280.4 453.94 284.66 448.69 284.66C402.36 284.66 240.24 284.66 217.08 284.66Z" id="bUUu0I2SA"></path><path d="M202.81 318.47C197.56 318.47 193.3 314.21 193.3 308.96C193.3 299.47 193.3 223.56 193.3 214.07C193.3 208.82 197.56 204.56 202.81 204.56C228.82 204.56 436.94 204.56 462.95 204.56C468.21 204.56 472.47 208.82 472.47 214.07C472.47 223.56 472.47 299.47 472.47 308.96C472.47 314.21 468.21 318.47 462.95 318.47C410.92 318.47 228.82 318.47 202.81 318.47Z" id="c1SgsAyUdO"></path><path d="M252.33 232.3C236.2 232.3 223.11 245.38 223.11 261.52C223.11 277.65 236.2 290.73 252.33 290.73C268.47 290.73 281.55 277.65 281.55 261.52C281.55 245.38 268.47 232.3 252.33 232.3Z" id="b2jC9lkfab"></path><path d="M258.49 255.36C258.49 250.9 258.49 248.42 258.49 247.92C258.49 245.6 256.61 243.72 254.28 243.72C253.89 243.72 250.77 243.72 250.38 243.72C248.06 243.72 246.18 245.6 246.18 247.92C246.18 248.42 246.18 250.9 246.18 255.36C241.71 255.36 239.23 255.36 238.74 255.36C236.42 255.36 234.53 257.24 234.53 259.56C234.53 259.95 234.53 263.08 234.53 263.47C234.53 265.79 236.42 267.67 238.74 267.67C239.23 267.67 241.71 267.67 246.18 267.67C246.18 272.14 246.18 274.62 246.18 275.11C246.18 277.43 248.06 279.32 250.38 279.32C250.77 279.32 253.89 279.32 254.28 279.32C256.61 279.32 258.49 277.43 258.49 275.11C258.49 274.62 258.49 272.14 258.49 267.67C262.95 267.67 265.43 267.67 265.93 267.67C268.25 267.67 270.13 265.79 270.13 263.47C270.13 263.08 270.13 259.95 270.13 259.56C270.13 257.24 268.25 255.36 265.93 255.36C264.94 255.36 262.46 255.36 258.49 255.36Z" id="a1cVKQBvkR"></path><path d="M295.8 279.16C213.57 279.16 167.89 279.16 158.75 279.16C153.5 279.16 149.24 283.42 149.24 288.68C149.24 306.29 149.24 447.17 149.24 464.78C149.24 470.03 153.5 474.29 158.75 474.29C193.58 474.29 472.18 474.29 507.01 474.29C512.26 474.29 516.52 470.03 516.52 464.78C516.52 443.4 516.52 272.39 516.52 251.01C516.52 245.76 512.26 241.5 507.01 241.5C490.47 241.5 358.2 241.5 341.67 241.5C336.66 241.5 331.85 243.48 328.28 247.01C323.95 251.29 313.12 262.01 295.8 279.16Z" id="clQXcfmfl"></path><path d="M291.21 143.31C275.93 126.63 267.45 117.36 265.75 115.51C261.26 110.61 254.87 107.79 248.21 107.79C239.27 107.79 167.7 107.79 158.75 107.79C150.89 107.79 144.49 114.19 144.49 122.06C144.49 135.02 144.49 238.68 144.49 251.64C144.49 254.26 146.62 256.39 149.24 256.39C151.87 256.39 154 254.26 154 251.64C154 238.68 154 135.02 154 122.06C154 119.44 156.13 117.3 158.75 117.3C167.7 117.3 239.27 117.3 248.22 117.3C252.21 117.3 256.04 118.99 258.74 121.94C261.42 124.87 282.92 148.35 285.61 151.28C286.51 152.26 287.78 152.82 289.12 152.82C310.91 152.82 485.22 152.82 507.01 152.82C509.63 152.82 511.77 154.96 511.77 157.58C511.77 165.58 511.77 229.58 511.77 237.58C510.28 237.05 508.68 236.74 507.01 236.74C500.62 236.74 449.47 236.74 443.07 236.74C440.45 236.74 438.32 238.87 438.32 241.5C438.32 244.13 440.45 246.26 443.07 246.26C449.47 246.26 500.62 246.26 507.01 246.26C509.63 246.26 511.77 248.39 511.77 251.01C511.77 272.39 511.77 443.4 511.77 464.78C511.77 467.4 509.63 469.53 507.01 469.53C472.19 469.53 193.58 469.53 158.75 469.53C156.13 469.53 154 467.4 154 464.78C154 447.17 154 306.29 154 288.68C154 286.05 156.13 283.92 158.75 283.92C172.46 283.92 282.09 283.92 295.8 283.92C297.05 283.92 298.25 283.43 299.14 282.54C302.39 279.33 328.38 253.6 331.63 250.38C334.32 247.72 337.88 246.26 341.67 246.26C349.04 246.26 408.02 246.26 415.39 246.26C418.02 246.26 420.15 244.13 420.15 241.5C420.15 238.87 418.02 236.74 415.39 236.74C408.02 236.74 349.04 236.74 341.67 236.74C335.36 236.74 329.42 239.19 324.94 243.62C322.87 245.68 312.5 255.94 293.84 274.41C212.79 274.41 167.76 274.41 158.75 274.41C150.89 274.41 144.49 280.81 144.49 288.67C144.49 306.29 144.49 447.17 144.49 464.78C144.49 472.64 150.89 479.04 158.75 479.04C193.58 479.04 472.18 479.04 507.01 479.04C514.88 479.04 521.28 472.64 521.28 464.78C521.28 434.06 521.28 188.3 521.28 157.58C521.28 149.71 514.88 143.31 507.01 143.31C507.01 143.31 435.08 143.31 291.21 143.31Z" id="c5lfKF261N"></path><path d="M177.9 149.04C175.27 149.04 173.14 146.91 173.14 144.28C173.14 143.57 173.14 137.9 173.14 137.19C173.14 134.56 175.27 132.43 177.9 132.43C184.12 132.43 233.94 132.43 240.16 132.43C241.52 132.43 242.82 133.01 243.72 134.03C244.35 134.74 249.39 140.41 250.02 141.12C252.75 144.19 250.57 149.04 246.47 149.04C232.75 149.04 184.75 149.04 177.9 149.04Z" id="e4UUZPadgR"></path><path d="M335.84 291.79C299.33 291.79 269.74 321.39 269.74 357.89C269.74 394.4 299.33 424 335.84 424C372.35 424 401.94 394.4 401.94 357.89C401.94 321.39 372.35 291.79 335.84 291.79Z" id="l1AJyh8eo2"></path><path d="M595.31 528.48C598.2 526.73 600.15 523.85 600.64 520.57C603.71 499.95 605.67 468.37 605.67 432.96C605.67 400.09 603.98 370.51 601.28 349.94C600.55 344.35 595.63 340.16 589.83 340.16C572.48 340.16 433.73 340.16 416.38 340.16C410.58 340.16 405.67 344.35 404.93 349.94C402.24 370.51 400.54 400.09 400.54 432.96C400.54 468.37 402.51 499.95 405.57 520.57C406.06 523.85 408.01 526.73 410.9 528.48C418.75 533.22 481.53 571.16 489.38 575.91C497.78 580.99 508.43 580.99 516.83 575.91C532.53 566.42 579.61 537.96 595.31 528.48Z" id="a2m3RSLRg"></path><path d="M503.11 373.83L503.11 442.95C462.39 442.95 439.76 442.95 435.24 442.95C435.2 439.64 435.18 436.31 435.18 432.97C435.18 412.95 435.84 393.55 437.05 376.95C437.17 375.19 438.69 373.83 440.5 373.83C448.85 373.83 469.72 373.83 503.11 373.83Z" id="a254fRnC5q"></path><path d="M503.11 442.95L503.11 544.56C465.24 521.67 444.2 508.96 439.99 506.42C439.08 505.87 438.48 504.95 438.38 503.91C436.61 487.18 435.5 465.64 435.24 442.95C444.29 442.95 466.91 442.95 503.11 442.95Z" id="bd7UtzXsI"></path><path d="M570.98 442.95C566.46 442.95 543.83 442.95 503.11 442.95L503.11 373.83C540.67 373.83 561.54 373.83 565.71 373.83C567.52 373.83 569.04 375.19 569.16 376.95C570.38 393.55 571.04 412.95 571.04 432.97C571.04 436.31 571.02 439.64 570.98 442.95Z" id="b3p98h0ON"></path><path d="M570.98 442.95C570.73 465.64 569.61 487.18 567.84 503.91C567.73 504.95 567.14 505.87 566.23 506.42C562.02 508.96 540.98 521.67 503.11 544.56L503.11 442.95C539.31 442.95 561.93 442.95 570.98 442.95Z" id="a1sztFShdv"></path><path d="M349.77 343.97C349.77 333.87 349.77 328.26 349.77 327.14C349.77 321.88 345.51 317.63 340.26 317.63C339.37 317.63 332.31 317.63 331.43 317.63C326.17 317.63 321.92 321.88 321.92 327.14C321.92 328.26 321.92 333.87 321.92 343.97C311.82 343.97 306.21 343.97 305.08 343.97C299.83 343.97 295.57 348.23 295.57 353.48C295.57 354.36 295.57 361.43 295.57 362.31C295.57 367.56 299.83 371.82 305.08 371.82C306.21 371.82 311.82 371.82 321.92 371.82C321.92 381.92 321.92 387.53 321.92 388.65C321.92 393.9 326.17 398.16 331.43 398.16C332.31 398.16 339.37 398.16 340.26 398.16C345.51 398.16 349.77 393.9 349.77 388.65C349.77 387.53 349.77 381.92 349.77 371.82C359.87 371.82 365.48 371.82 366.6 371.82C371.85 371.82 376.11 367.56 376.11 362.31C376.11 361.43 376.11 354.36 376.11 353.48C376.11 348.23 371.85 343.97 366.6 343.97C364.35 343.97 358.74 343.97 349.77 343.97Z" id="c5VjRDMiLX"></path><path d="M184.46 406.51C181.83 406.51 179.7 404.38 179.7 401.76C179.7 399.13 181.83 397 184.46 397C186.23 397 200.37 397 202.14 397C204.76 397 206.89 399.13 206.89 401.76C206.89 404.38 204.76 406.51 202.14 406.51C198.6 406.51 186.23 406.51 184.46 406.51Z" id="b6u8gfRPAC"></path><path d="M184.46 424C181.83 424 179.7 421.87 179.7 419.24C179.7 416.61 181.83 414.48 184.46 414.48C190.03 414.48 234.61 414.48 240.18 414.48C242.81 414.48 244.94 416.61 244.94 419.24C244.94 421.87 242.81 424 240.18 424C229.04 424 190.03 424 184.46 424Z" id="czLNZW9Q3"></path><path d="M184.46 441.48C181.83 441.48 179.7 439.35 179.7 436.72C179.7 434.1 181.83 431.97 184.46 431.97C190.03 431.97 234.61 431.97 240.18 431.97C242.81 431.97 244.94 434.1 244.94 436.72C244.94 439.35 242.81 441.48 240.18 441.48C229.04 441.48 190.03 441.48 184.46 441.48Z" id="a1iozQBpW"></path><path d="M407.23 91.47C407.23 91.46 407.23 91.34 407.23 91.33C407.23 88.7 409.36 86.57 411.99 86.57C414.61 86.57 416.74 88.7 416.74 91.33C416.74 91.34 416.74 91.46 416.74 91.47C416.74 94.1 414.61 96.23 411.99 96.23C409.36 96.23 407.23 94.1 407.23 91.47Z" id="g1viHi86D2"></path><path d="M407.23 117.9C407.23 117.88 407.23 117.77 407.23 117.76C407.23 115.13 409.36 113 411.99 113C414.61 113 416.74 115.13 416.74 117.76C416.74 117.77 416.74 117.88 416.74 117.9C416.74 120.53 414.61 122.65 411.99 122.65C409.36 122.65 407.23 120.53 407.23 117.9Z" id="j1IAp7ucKV"></path><path d="M398.22 102.16C398.21 102.15 398.11 102.09 398.1 102.09C395.83 100.77 395.05 97.86 396.37 95.59C397.68 93.31 400.59 92.54 402.86 93.85C402.88 93.86 402.98 93.92 402.99 93.93C405.26 95.24 406.04 98.15 404.72 100.42C403.84 101.95 402.24 102.8 400.6 102.8C399.79 102.8 398.97 102.59 398.22 102.16Z" id="b10HcoFDIg"></path><path d="M421.12 115.38C421.11 115.37 421.01 115.32 421 115.31C418.72 114 417.94 111.09 419.25 108.82C420.55 106.54 423.46 105.75 425.74 107.06C425.75 107.07 425.85 107.13 425.86 107.13C428.14 108.44 428.93 111.35 427.62 113.63C426.74 115.16 425.14 116.01 423.49 116.01C422.68 116.01 421.87 115.81 421.12 115.38Z" id="gCUBZVX7H"></path><path d="M396.37 113.64C395.05 111.37 395.83 108.46 398.1 107.14C398.11 107.13 398.21 107.08 398.22 107.07C400.5 105.75 403.41 106.53 404.72 108.8C406.04 111.08 405.26 113.98 402.99 115.3C402.98 115.31 402.88 115.36 402.86 115.37C402.11 115.81 401.29 116.01 400.49 116.01C398.84 116.01 397.25 115.16 396.37 113.64Z" id="a17JlVGn0D"></path><path d="M419.25 100.41C417.94 98.13 418.72 95.23 421 93.92C421.01 93.91 421.11 93.85 421.12 93.85C423.4 92.54 426.31 93.32 427.62 95.6C428.93 97.88 428.14 100.78 425.86 102.09C425.85 102.1 425.75 102.16 425.74 102.16C424.99 102.59 424.18 102.8 423.37 102.8C421.73 102.8 420.13 101.94 419.25 100.41Z" id="d1ui2Vq7Bl"></path><path d="M360.07 571.21C360.07 567.89 357.37 565.19 354.05 565.19C351.42 565.19 349.3 563.06 349.3 560.43C349.3 557.81 351.42 555.68 354.05 555.68C357.37 555.68 360.07 552.97 360.07 549.65C360.07 547.03 362.2 544.9 364.83 544.9C367.46 544.9 369.59 547.03 369.59 549.65C369.59 552.97 372.29 555.68 375.61 555.68C378.24 555.68 380.37 557.81 380.37 560.43C380.37 563.06 378.24 565.19 375.61 565.19C372.29 565.19 369.59 567.89 369.59 571.21C369.59 573.84 367.46 575.97 364.83 575.97C362.2 575.97 360.07 573.84 360.07 571.21Z" id="akqnOkdPw"></path><path d="M357.52 95.46C357.52 92.14 354.82 89.44 351.5 89.44C348.87 89.44 346.74 87.31 346.74 84.68C346.74 82.05 348.87 79.92 351.5 79.92C354.82 79.92 357.52 77.22 357.52 73.9C357.52 71.27 359.65 69.14 362.28 69.14C364.9 69.14 367.03 71.27 367.03 73.9C367.03 77.22 369.73 79.92 373.06 79.92C375.68 79.92 377.81 82.05 377.81 84.68C377.81 87.31 375.68 89.44 373.06 89.44C369.73 89.44 367.03 92.14 367.03 95.46C367.03 98.09 364.9 100.21 362.28 100.21C359.65 100.21 357.52 98.09 357.52 95.46Z" id="d3hbDCEA4C"></path><path d="M331.2 129.58C331.2 126.26 328.5 123.56 325.18 123.56C322.55 123.56 320.42 121.43 320.42 118.8C320.42 116.18 322.55 114.05 325.18 114.05C328.5 114.05 331.2 111.34 331.2 108.02C331.2 105.4 333.33 103.27 335.96 103.27C338.59 103.27 340.72 105.4 340.72 108.02C340.72 111.34 343.42 114.05 346.74 114.05C349.37 114.05 351.5 116.18 351.5 118.8C351.5 121.43 349.37 123.56 346.74 123.56C343.42 123.56 340.72 126.26 340.72 129.58C340.72 132.21 338.59 134.34 335.96 134.34C333.33 134.34 331.2 132.21 331.2 129.58Z" id="e2r8eVS3t1"></path></defs><g><g><g><use xlink:href="#j2ozS9U27G" opacity="1" fill="url(#gradientaiAnEi6l4)"></use><g><use xlink:href="#j2ozS9U27G" opacity="1" fill-opacity="0" stroke="#000000" stroke-width="1" stroke-opacity="0"></use></g></g><g><use xlink:href="#b47I9ux5u2" opacity="1" fill="#4f39bf" fill-opacity="1"></use><g><use xlink:href="#b47I9ux5u2" opacity="1" fill-opacity="0" stroke="#000000" stroke-width="1" stroke-opacity="0"></use></g></g><g><use xlink:href="#i50T5C9MQq" opacity="1" fill="#4f39bf" fill-opacity="1"></use><g><use xlink:href="#i50T5C9MQq" opacity="1" fill-opacity="0" stroke="#000000" stroke-width="1" stroke-opacity="0"></use></g></g><g><use xlink:href="#a2sceqPX44" opacity="1" fill="#00d8d8" fill-opacity="1"></use><g><use xlink:href="#a2sceqPX44" opacity="1" fill-opacity="0" stroke="#000000" stroke-width="1" stroke-opacity="0"></use></g></g><g><use xlink:href="#a5ttpOd8N7" opacity="1" fill="#4f39bf" fill-opacity="1"></use><g><use xlink:href="#a5ttpOd8N7" opacity="1" fill-opacity="0" stroke="#000000" stroke-width="1" stroke-opacity="0"></use></g></g><g><use xlink:href="#c2wk2bxnMx" opacity="1" fill="#00d8d8" fill-opacity="1"></use><g><use xlink:href="#c2wk2bxnMx" opacity="1" fill-opacity="0" stroke="#000000" stroke-width="1" stroke-opacity="0"></use></g></g><g><use xlink:href="#c2jQuboAHq" opacity="1" fill="#00d8d8" fill-opacity="1"></use><g><use xlink:href="#c2jQuboAHq" opacity="1" fill-opacity="0" stroke="#000000" stroke-width="1" stroke-opacity="0"></use></g></g><g><use xlink:href="#a5YSKp8Mf2" opacity="1" fill="#4f39bf" fill-opacity="1"></use><g><use xlink:href="#a5YSKp8Mf2" opacity="1" fill-opacity="0" stroke="#000000" stroke-width="1" stroke-opacity="0"></use></g></g><g><use xlink:href="#a5uRAUFLtv" opacity="1" fill="#4f39bf" fill-opacity="1"></use><g><use xlink:href="#a5uRAUFLtv" opacity="1" fill-opacity="0" stroke="#000000" stroke-width="1" stroke-opacity="0"></use></g></g><g><use xlink:href="#c3uOpV6zDd" opacity="1" fill="#00d8d8" fill-opacity="1"></use><g><use xlink:href="#c3uOpV6zDd" opacity="1" fill-opacity="0" stroke="#000000" stroke-width="1" stroke-opacity="0"></use></g></g><g><use xlink:href="#dRAZQg040" opacity="1" fill="#ff9d33" fill-opacity="1"></use><g><use xlink:href="#dRAZQg040" opacity="1" fill-opacity="0" stroke="#000000" stroke-width="1" stroke-opacity="0"></use></g></g><g><use xlink:href="#bUUu0I2SA" opacity="1" fill="#ebebff" fill-opacity="1"></use><g><use xlink:href="#bUUu0I2SA" opacity="1" fill-opacity="0" stroke="#000000" stroke-width="1" stroke-opacity="0"></use></g></g><g><use xlink:href="#c1SgsAyUdO" opacity="1" fill="#ffffff" fill-opacity="1"></use><g><use xlink:href="#c1SgsAyUdO" opacity="1" fill-opacity="0" stroke="#000000" stroke-width="1" stroke-opacity="0"></use></g></g><g><use xlink:href="#b2jC9lkfab" opacity="1" fill="#ff4d4d" fill-opacity="1"></use><g><use xlink:href="#b2jC9lkfab" opacity="1" fill-opacity="0" stroke="#000000" stroke-width="1" stroke-opacity="0"></use></g></g><g><use xlink:href="#a1cVKQBvkR" opacity="1" fill="#ffffff" fill-opacity="1"></use><g><use xlink:href="#a1cVKQBvkR" opacity="1" fill-opacity="0" stroke="#000000" stroke-width="1" stroke-opacity="0"></use></g></g><g><use xlink:href="#clQXcfmfl" opacity="1" fill="#ffab66" fill-opacity="1"></use><g><use xlink:href="#clQXcfmfl" opacity="1" fill-opacity="0" stroke="#000000" stroke-width="1" stroke-opacity="0"></use></g></g><g><use xlink:href="#c5lfKF261N" opacity="1" fill="#4f39bf" fill-opacity="1"></use><g><use xlink:href="#c5lfKF261N" opacity="1" fill-opacity="0" stroke="#000000" stroke-width="1" stroke-opacity="0"></use></g></g><g><use xlink:href="#e4UUZPadgR" opacity="1" fill="#ff4d4d" fill-opacity="1"></use><g><use xlink:href="#e4UUZPadgR" opacity="1" fill-opacity="0" stroke="#000000" stroke-width="1" stroke-opacity="0"></use></g></g><g><use xlink:href="#l1AJyh8eo2" opacity="1" fill="#ff4d4d" fill-opacity="1"></use><g><use xlink:href="#l1AJyh8eo2" opacity="1" fill-opacity="0" stroke="#000000" stroke-width="1" stroke-opacity="0"></use></g></g><g><use xlink:href="#a2m3RSLRg" opacity="1" fill="#4f39bf" fill-opacity="1"></use><g><use xlink:href="#a2m3RSLRg" opacity="1" fill-opacity="0" stroke="#000000" stroke-width="1" stroke-opacity="0"></use></g></g><g><use xlink:href="#a254fRnC5q" opacity="1" fill="#ffbe92" fill-opacity="1"></use><g><use xlink:href="#a254fRnC5q" opacity="1" fill-opacity="0" stroke="#000000" stroke-width="1" stroke-opacity="0"></use></g></g><g><use xlink:href="#bd7UtzXsI" opacity="1" fill="#ffd5b8" fill-opacity="1"></use><g><use xlink:href="#bd7UtzXsI" opacity="1" fill-opacity="0" stroke="#000000" stroke-width="1" stroke-opacity="0"></use></g></g><g><use xlink:href="#b3p98h0ON" opacity="1" fill="#ffd5b8" fill-opacity="1"></use><g><use xlink:href="#b3p98h0ON" opacity="1" fill-opacity="0" stroke="#000000" stroke-width="1" stroke-opacity="0"></use></g></g><g><use xlink:href="#a1sztFShdv" opacity="1" fill="#ffbe92" fill-opacity="1"></use><g><use xlink:href="#a1sztFShdv" opacity="1" fill-opacity="0" stroke="#000000" stroke-width="1" stroke-opacity="0"></use></g></g><g><use xlink:href="#c5VjRDMiLX" opacity="1" fill="#ffffff" fill-opacity="1"></use><g><use xlink:href="#c5VjRDMiLX" opacity="1" fill-opacity="0" stroke="#000000" stroke-width="1" stroke-opacity="0"></use></g></g><g><use xlink:href="#b6u8gfRPAC" opacity="1" fill="#ffffff" fill-opacity="1"></use><g><use xlink:href="#b6u8gfRPAC" opacity="1" fill-opacity="0" stroke="#000000" stroke-width="1" stroke-opacity="0"></use></g></g><g><use xlink:href="#czLNZW9Q3" opacity="1" fill="#ffffff" fill-opacity="1"></use><g><use xlink:href="#czLNZW9Q3" opacity="1" fill-opacity="0" stroke="#000000" stroke-width="1" stroke-opacity="0"></use></g></g><g><use xlink:href="#a1iozQBpW" opacity="1" fill="#ffffff" fill-opacity="1"></use><g><use xlink:href="#a1iozQBpW" opacity="1" fill-opacity="0" stroke="#000000" stroke-width="1" stroke-opacity="0"></use></g></g><g><use xlink:href="#g1viHi86D2" opacity="1" fill="#6c6cff" fill-opacity="1"></use><g><use xlink:href="#g1viHi86D2" opacity="1" fill-opacity="0" stroke="#000000" stroke-width="1" stroke-opacity="0"></use></g></g><g><use xlink:href="#j1IAp7ucKV" opacity="1" fill="#6c6cff" fill-opacity="1"></use><g><use xlink:href="#j1IAp7ucKV" opacity="1" fill-opacity="0" stroke="#000000" stroke-width="1" stroke-opacity="0"></use></g></g><g><use xlink:href="#b10HcoFDIg" opacity="1" fill="#6c6cff" fill-opacity="1"></use><g><use xlink:href="#b10HcoFDIg" opacity="1" fill-opacity="0" stroke="#000000" stroke-width="1" stroke-opacity="0"></use></g></g><g><use xlink:href="#gCUBZVX7H" opacity="1" fill="#6c6cff" fill-opacity="1"></use><g><use xlink:href="#gCUBZVX7H" opacity="1" fill-opacity="0" stroke="#000000" stroke-width="1" stroke-opacity="0"></use></g></g><g><use xlink:href="#a17JlVGn0D" opacity="1" fill="#6c6cff" fill-opacity="1"></use><g><use xlink:href="#a17JlVGn0D" opacity="1" fill-opacity="0" stroke="#000000" stroke-width="1" stroke-opacity="0"></use></g></g><g><use xlink:href="#d1ui2Vq7Bl" opacity="1" fill="#6c6cff" fill-opacity="1"></use><g><use xlink:href="#d1ui2Vq7Bl" opacity="1" fill-opacity="0" stroke="#000000" stroke-width="1" stroke-opacity="0"></use></g></g><g><use xlink:href="#akqnOkdPw" opacity="1" fill="#6c6cff" fill-opacity="1"></use><g><use xlink:href="#akqnOkdPw" opacity="1" fill-opacity="0" stroke="#000000" stroke-width="1" stroke-opacity="0"></use></g></g><g><use xlink:href="#d3hbDCEA4C" opacity="1" fill="#ff9d33" fill-opacity="1"></use><g><use xlink:href="#d3hbDCEA4C" opacity="1" fill-opacity="0" stroke="#000000" stroke-width="1" stroke-opacity="0"></use></g></g><g><use xlink:href="#e2r8eVS3t1" opacity="1" fill="#ff4d4d" fill-opacity="1"></use><g><use xlink:href="#e2r8eVS3t1" opacity="1" fill-opacity="0" stroke="#000000" stroke-width="1" stroke-opacity="0"></use></g></g></g></g></svg>