<?xml version="1.0"?>
<svg xmlns="http://www.w3.org/2000/svg" id="Layer_1" enable-background="new 0 0 512.01 512.01" height="512px" viewBox="0 0 512.01 512.01" width="512px"><g><path d="m504.665 101.062-118.826-70.51c-4.636-2.751-10.392-2.802-15.076-.136l-114.758 65.332-115.55-65.783c-4.711-2.682-10.504-2.614-15.15.18l-118.034 70.961c-4.512 2.713-7.271 7.592-7.271 12.856l.005 170.048c0 4.662 2.168 9.06 5.866 11.898l241 185c2.694 2.067 5.913 3.102 9.134 3.102 3.213 0 6.428-1.03 9.118-3.09l241.005-184.503c3.708-2.838 5.882-7.241 5.882-11.91v-170.545c0-5.295-2.792-10.198-7.345-12.9zm-81.015 37.975-30.645-18.184v-51.164l74.347 44.116zm-167.572 217.83-152.075-116.738-.002-75.829 30.257-18.19 114.326 65.087c.043.024.087.045.13.069.131.073.264.14.397.209.256.132.514.257.775.373.136.061.27.125.409.182.358.148.721.279 1.087.398.146.047.294.088.442.131.296.086.594.162.893.23.123.027.243.059.367.084.407.081.817.141 1.228.187.118.013.237.024.357.034.436.039.873.065 1.311.066.009 0 .017.001.026.001s.017-.001.026-.001c.438-.001.875-.027 1.311-.066.119-.01.238-.021.357-.034.411-.047.821-.107 1.228-.187.124-.024.244-.056.367-.084.3-.067.598-.144.894-.23.148-.043.296-.084.441-.131.366-.119.729-.25 1.087-.398.138-.057.272-.121.409-.182.261-.117.519-.241.775-.373.133-.069.267-.136.397-.209.043-.024.087-.044.13-.069l113.831-64.805 30.752 18.248v75.916zm106.927-236.883-92 52.376v-50.631l92-52.376zm-122 52.377-91.954-52.35v-50.632l91.954 52.35zm-121.954-52.114-30.204 18.159-43.561-25.15 73.766-44.348v51.339zm-89.05 18.825 44.001 25.403.002 73.658-43.999 25.403zm57.278 126.038 153.726 118.006v55.469l-194.968-149.664zm183.726 118.111 154.721-118.448 41.264 23.824-195.985 150.038zm167.005-145.997v-71.838l44-25.403v122.644z" data-original="#000000" class="active-path" data-old_color="#000000" fill="#FFFFFF"/></g> </svg>
