<?xml version="1.0" encoding="UTF-8" standalone="no"?>
<!DOCTYPE svg PUBLIC "-//W3C//DTD SVG 1.1//EN" "http://www.w3.org/Graphics/SVG/1.1/DTD/svg11.dtd">
<svg version="1.1" xmlns="http://www.w3.org/2000/svg" xmlns:xlink="http://www.w3.org/1999/xlink" preserveAspectRatio="xMidYMid meet" viewBox="0 0 640 640" width="640" height="640"><defs><path d="M31.81 539.84C14.27 539.84 0 525.82 0 508.58C0 505.11 0 477.36 0 473.89C0 469.83 3.34 466.56 7.46 466.56C32.81 466.56 235.62 466.56 260.97 466.56C265.09 466.56 268.43 469.83 268.43 473.89C268.43 477.36 268.43 505.11 268.43 508.58C268.43 525.82 254.16 539.84 236.62 539.84C195.66 539.84 52.29 539.84 31.81 539.84ZM14.91 481.21C14.91 497.63 14.91 506.75 14.91 508.58C14.91 517.73 22.5 525.18 31.81 525.18C52.29 525.18 216.14 525.18 236.63 525.18C245.93 525.18 253.52 517.73 253.52 508.58C253.52 506.75 253.52 497.63 253.52 481.21L14.91 481.21Z" id="c1uF5mNxm3"></path><path d="M7.46 173.44C3.34 173.44 0 170.17 0 166.11C0 162.64 0 134.89 0 131.42C0 114.18 14.27 100.16 31.81 100.16C52.29 100.16 216.14 100.16 236.63 100.16C254.16 100.16 268.43 114.18 268.43 131.42C268.43 134.89 268.43 162.64 268.43 166.11C268.43 170.17 265.09 173.44 260.97 173.44C210.27 173.44 32.81 173.44 7.46 173.44ZM14.91 158.79L253.52 158.79C253.52 142.37 253.52 133.25 253.52 131.42C253.52 122.27 245.93 114.82 236.62 114.82C216.14 114.82 52.29 114.82 31.81 114.82C22.5 114.82 14.91 122.27 14.91 131.42C14.91 135.07 14.91 144.19 14.91 158.79Z" id="faC2kVb5C"></path><path d="M96.93 144.13C92.82 144.13 89.48 140.85 89.48 136.8C89.48 132.75 92.82 129.47 96.93 129.47C104.39 129.47 164.04 129.47 171.5 129.47C175.61 129.47 178.95 132.75 178.95 136.8C178.95 140.85 175.61 144.13 171.5 144.13C156.58 144.13 104.39 144.13 96.93 144.13Z" id="a3mDi2JTeD"></path><path d="M7.46 481.21C3.34 481.21 0 477.94 0 473.89C0 443.11 0 196.89 0 166.11C0 162.06 3.34 158.79 7.46 158.79C32.81 158.79 235.62 158.79 260.97 158.79C265.09 158.79 268.43 162.06 268.43 166.11C268.43 196.89 268.43 443.11 268.43 473.89C268.43 477.94 265.09 481.21 260.97 481.21C210.27 481.21 32.81 481.21 7.46 481.21ZM14.91 466.56L253.52 466.56L253.52 173.44L14.91 173.44L14.91 466.56Z" id="cakkpf56Dg"></path><path d="M37.28 451.9C33.17 451.9 29.83 448.63 29.83 444.57C29.83 441.64 29.83 418.19 29.83 415.26C29.83 411.21 33.17 407.94 37.28 407.94C41.76 407.94 77.55 407.94 82.02 407.94C86.14 407.94 89.48 411.21 89.48 415.26C89.48 418.19 89.48 441.64 89.48 444.57C89.48 448.63 86.14 451.9 82.02 451.9C73.07 451.9 41.76 451.9 37.28 451.9ZM44.74 437.25L74.56 437.25L74.56 422.59L44.74 422.59L44.74 437.25Z" id="bKh072ghS"></path><path d="M186.41 451.9C182.29 451.9 178.95 448.63 178.95 444.57C178.95 441.64 178.95 418.19 178.95 415.26C178.95 411.21 182.29 407.94 186.41 407.94C190.88 407.94 226.67 407.94 231.15 407.94C235.26 407.94 238.6 411.21 238.6 415.26C238.6 418.19 238.6 441.64 238.6 444.57C238.6 448.63 235.26 451.9 231.15 451.9C222.2 451.9 190.88 451.9 186.41 451.9ZM193.86 437.25L223.69 437.25L223.69 422.59L193.86 422.59L193.86 437.25Z" id="i58vSxb3H"></path><path d="M111.85 451.9C107.73 451.9 104.39 448.63 104.39 444.57C104.39 441.64 104.39 418.19 104.39 415.26C104.39 411.21 107.73 407.94 111.85 407.94C116.32 407.94 152.11 407.94 156.58 407.94C160.7 407.94 164.04 411.21 164.04 415.26C164.04 418.19 164.04 441.64 164.04 444.57C164.04 448.63 160.7 451.9 156.58 451.9C147.64 451.9 116.32 451.9 111.85 451.9ZM119.3 437.25L149.13 437.25L149.13 422.59L119.3 422.59L119.3 437.25Z" id="a7lMSY6pKK"></path><path d="M37.28 393.28C33.17 393.28 29.83 390 29.83 385.95C29.83 381.9 33.17 378.62 37.28 378.62C51.45 378.62 164.79 378.62 178.95 378.62C183.07 378.62 186.41 381.9 186.41 385.95C186.41 390 183.07 393.28 178.95 393.28C150.62 393.28 51.45 393.28 37.28 393.28Z" id="aV6Gk24KL"></path><path d="M208.78 393.28C204.66 393.28 201.32 390 201.32 385.95C201.32 381.9 204.66 378.62 208.78 378.62C211.01 378.62 228.91 378.62 231.15 378.62C235.26 378.62 238.6 381.9 238.6 385.95C238.6 390 235.26 393.28 231.15 393.28C226.67 393.28 211.01 393.28 208.78 393.28Z" id="e16vUVrMVe"></path><path d="M52.19 276.03C52.19 231.59 88.99 195.43 134.21 195.43C179.44 195.43 216.23 231.59 216.23 276.03C216.23 320.48 179.44 356.64 134.21 356.64C88.99 356.64 52.19 320.48 52.19 276.03ZM67.11 276.03C67.11 312.4 97.22 341.98 134.21 341.98C171.21 341.98 201.32 312.4 201.32 276.03C201.32 239.66 171.21 210.08 134.21 210.08C97.22 210.08 67.11 239.66 67.11 276.03Z" id="g196U4n8SN"></path><path d="M119.3 327.33C115.19 327.33 111.85 324.05 111.85 320C111.85 318.53 111.85 311.21 111.85 298.02C98.42 298.02 90.97 298.02 89.48 298.02C85.36 298.02 82.02 294.74 82.02 290.69C82.02 287.76 82.02 264.31 82.02 261.38C82.02 257.32 85.36 254.05 89.48 254.05C90.97 254.05 98.42 254.05 111.85 254.05C111.85 240.86 111.85 233.53 111.85 232.06C111.85 228.01 115.19 224.74 119.3 224.74C122.28 224.74 146.14 224.74 149.13 224.74C153.24 224.74 156.58 228.01 156.58 232.06C156.58 233.53 156.58 240.86 156.58 254.05C170 254.05 177.46 254.05 178.95 254.05C183.07 254.05 186.41 257.32 186.41 261.38C186.41 264.31 186.41 287.76 186.41 290.69C186.41 294.74 183.07 298.02 178.95 298.02C177.46 298.02 170 298.02 156.58 298.02C156.58 311.21 156.58 318.53 156.58 320C156.58 324.05 153.24 327.33 149.13 327.33C143.16 327.33 122.28 327.33 119.3 327.33ZM126.76 312.67L141.67 312.67C141.67 299.48 141.67 292.15 141.67 290.69C141.67 286.64 145.01 283.36 149.13 283.36C150.62 283.36 158.07 283.36 171.5 283.36L171.5 268.7C158.07 268.7 150.62 268.7 149.13 268.7C145.01 268.7 141.67 265.43 141.67 261.38C141.67 259.91 141.67 252.58 141.67 239.39L126.76 239.39C126.76 252.58 126.76 259.91 126.76 261.38C126.76 265.43 123.42 268.7 119.3 268.7C117.81 268.7 110.35 268.7 96.93 268.7L96.93 283.36C110.35 283.36 117.81 283.36 119.3 283.36C123.42 283.36 126.76 286.64 126.76 290.69C126.76 293.62 126.76 300.95 126.76 312.67Z" id="a1XG7zVSyb"></path><path d="M96.93 503.2C96.93 483 113.66 466.56 134.21 466.56C154.77 466.56 171.5 483 171.5 503.2C171.5 523.4 154.77 539.84 134.21 539.84C113.66 539.84 96.93 523.4 96.93 503.2ZM111.85 503.2C111.85 515.32 121.88 525.18 134.21 525.18C146.55 525.18 156.58 515.32 156.58 503.2C156.58 491.08 146.55 481.21 134.21 481.21C121.88 481.21 111.85 491.08 111.85 503.2Z" id="eOE1iFbtR"></path><path d="M462.68 90.21C462.68 80.75 462.68 75.5 462.68 74.45C462.68 71.17 460.05 68.51 456.82 68.51C453.58 68.51 450.96 71.17 450.96 74.45C450.96 75.5 450.96 80.75 450.96 90.21C441.62 90.21 436.43 90.21 435.39 90.21C432.15 90.21 429.53 92.87 429.53 96.15C429.53 99.42 432.15 102.08 435.39 102.08C436.43 102.08 441.62 102.08 450.96 102.08C450.96 111.54 450.96 116.8 450.96 117.85C450.96 121.13 453.58 123.78 456.82 123.78C460.05 123.78 462.68 121.13 462.68 117.85C462.68 116.8 462.68 111.54 462.68 102.08C472.02 102.08 477.21 102.08 478.25 102.08C481.48 102.08 484.1 99.42 484.1 96.15C484.1 92.87 481.48 90.21 478.25 90.21C476.17 90.21 470.98 90.21 462.68 90.21Z" id="aatQ8NnV1"></path><path d="M405.26 96.15C405.26 124.94 428.39 148.37 456.82 148.37C485.25 148.37 508.38 124.94 508.38 96.15C508.38 67.36 485.25 43.93 456.82 43.93C428.39 43.93 405.26 67.36 405.26 96.15ZM416.98 96.15C416.98 73.9 434.85 55.8 456.82 55.8C478.78 55.8 496.66 73.9 496.66 96.15C496.66 118.4 478.78 136.5 456.82 136.5C434.85 136.5 416.98 118.4 416.98 96.15Z" id="i7AwYNwMh"></path><path d="M521.31 1.74C520.21 0.63 518.72 0 517.16 0C501.05 0 372.15 0 356.04 0C346.35 0 338.46 7.99 338.46 17.8C338.46 44.62 338.46 259.19 338.46 286.02C338.46 295.83 346.35 303.82 356.04 303.82C367.23 303.82 456.77 303.82 467.96 303.82C471.2 303.82 473.82 301.16 473.82 297.88C473.82 294.61 471.2 291.95 467.96 291.95C456.77 291.95 367.23 291.95 356.04 291.95C352.81 291.95 350.18 289.29 350.18 286.02C350.18 259.2 350.18 44.62 350.18 17.8C350.18 14.53 352.81 11.87 356.04 11.87C366.39 11.87 418.15 11.87 511.31 11.87C511.31 32.87 511.31 44.54 511.31 46.88C511.31 56.69 519.19 64.68 528.88 64.68C531.19 64.68 542.71 64.68 563.45 64.68C563.45 128.05 563.45 163.26 563.45 170.3C563.45 173.58 566.07 176.24 569.31 176.24C572.54 176.24 575.17 173.58 575.17 170.3C575.17 159.15 575.17 69.9 575.17 58.75C575.17 57.17 574.55 55.66 573.45 54.55C563.02 43.99 526.52 7.02 521.31 1.74ZM523.02 46.88C523.02 45.1 523.02 36.23 523.02 20.26L555.17 52.81L528.88 52.81C524.98 51.04 523.02 49.06 523.02 46.88Z" id="a3461XmiCH"></path><path d="M430.06 166.15C426.82 166.15 424.2 168.81 424.2 172.08C424.2 175.36 426.83 178.02 430.06 178.02C440.24 178.02 521.64 178.02 531.81 178.02C535.05 178.02 537.67 175.36 537.67 172.08C537.67 168.81 535.05 166.15 531.81 166.15C511.46 166.15 440.24 166.15 430.06 166.15Z" id="a52kYoMf7b"></path><path d="M381.82 166.15C378.59 166.15 375.96 168.81 375.96 172.08C375.96 175.36 378.59 178.02 381.82 178.02C383.73 178.02 399 178.02 400.91 178.02C404.15 178.02 406.77 175.36 406.77 172.08C406.77 168.81 404.15 166.15 400.91 166.15C397.09 166.15 383.73 166.15 381.82 166.15Z" id="a38hpKx4"></path><path d="M430.06 199.38C426.82 199.38 424.2 202.04 424.2 205.31C424.2 208.59 426.83 211.25 430.06 211.25C435.9 211.25 482.62 211.25 488.46 211.25C491.69 211.25 494.31 208.59 494.31 205.31C494.31 202.04 491.69 199.38 488.46 199.38C476.78 199.38 435.9 199.38 430.06 199.38Z" id="cuMWsNpZK"></path><path d="M381.82 199.38C378.59 199.38 375.96 202.04 375.96 205.31C375.96 208.59 378.59 211.25 381.82 211.25C383.73 211.25 399 211.25 400.91 211.25C404.15 211.25 406.77 208.59 406.77 205.31C406.77 202.04 404.15 199.38 400.91 199.38C397.09 199.38 383.73 199.38 381.82 199.38Z" id="a1eyPMMO0q"></path><path d="M430.06 232.61C428.52 232.61 427.01 233.24 425.92 234.35C424.83 235.45 424.2 236.98 424.2 238.54C424.2 240.1 424.83 241.64 425.92 242.74C427.01 243.84 428.52 244.48 430.06 244.48C431.61 244.48 433.11 243.84 434.2 242.74C435.3 241.64 435.92 240.1 435.92 238.54C435.92 236.98 435.3 235.45 434.2 234.35C433.11 233.24 431.6 232.61 430.06 232.61Z" id="b1HiaNERgp"></path><path d="M381.82 232.61C378.59 232.61 375.96 235.27 375.96 238.54C375.96 241.82 378.59 244.48 381.82 244.48C383.73 244.48 399 244.48 400.91 244.48C404.15 244.48 406.77 241.82 406.77 238.54C406.77 235.27 404.15 232.61 400.91 232.61C397.09 232.61 383.73 232.61 381.82 232.61Z" id="axCLlb8kx"></path><path d="M597.07 230.6C600.76 218.06 597.73 203.9 587.97 194.02C581.11 187.07 571.99 183.24 562.29 183.24C552.58 183.24 543.46 187.07 536.6 194.02C531.96 198.72 494.84 236.31 490.2 241.01C483.34 247.96 479.56 257.2 479.56 267.03C479.56 276.85 483.34 286.09 490.2 293.04C497.28 300.21 506.58 303.8 515.89 303.8C525.19 303.8 534.49 300.21 541.57 293.04C544 290.58 563.42 270.91 565.85 268.45C566.59 288.08 582.58 303.82 602.14 303.82C622.17 303.82 638.46 287.31 638.46 267.03C638.46 246.74 622.17 230.23 602.14 230.23C600.42 230.23 598.73 230.36 597.07 230.6ZM498.48 284.65C493.84 279.94 491.28 273.68 491.28 267.03C491.28 260.37 493.84 254.11 498.48 249.4C499.76 248.12 506.11 241.68 517.54 230.1L552.34 265.35L533.28 284.65C516.48 291.13 504.88 291.13 498.48 284.65ZM525.83 221.71C537.26 210.13 543.61 203.7 544.89 202.41C549.53 197.7 555.71 195.11 562.28 195.11C568.86 195.11 575.04 197.7 579.68 202.41C589.28 212.13 589.28 227.94 579.68 237.65C578.41 238.94 572.06 245.38 560.63 256.96L525.83 221.71ZM577.53 267.03C577.53 255.33 585.53 245.49 596.28 242.82C596.28 246.05 596.28 262.19 596.28 291.23C583.78 282.89 577.53 274.82 577.53 267.03ZM608 242.82C618.75 245.49 626.75 255.33 626.75 267.03C626.75 278.72 618.75 288.56 608 291.23C608 281.55 608 247.66 608 242.82Z" id="c5EYBQIase"></path><path d="M640 340.18L340 340.18L340 640.18L640 640.18L640 340.18ZM622.42 622.6L357.58 622.6L357.58 357.75L622.42 357.75L622.42 622.6Z" id="a9KgbJ2TB"></path><path d="M481.21 481.39L481.21 517.13C475.83 517.13 472.85 517.13 472.25 517.13C461.71 503.08 443.89 496.59 426.35 500.88C410.71 504.71 397.87 517.86 394.41 533.61C391.28 547.83 394.96 562.11 404.5 572.78C406.39 574.89 421.45 591.73 423.33 593.84C429.69 600.94 438.8 605.02 448.34 605.02C461.12 605.02 472.62 597.92 478.34 586.48C478.89 585.37 481.66 579.83 486.64 569.86L493.36 569.86C498.34 579.83 501.11 585.37 501.66 586.48C507.38 597.92 518.88 605.02 531.66 605.02C541.2 605.02 550.31 600.94 556.67 593.84C558.55 591.73 573.61 574.89 575.5 572.78C585.04 562.11 588.72 547.83 585.59 533.61C582.12 517.86 569.29 504.71 553.65 500.88C536.11 496.59 518.29 503.08 507.75 517.13C507.15 517.13 504.17 517.13 498.79 517.13L498.79 481.39C511.42 481.39 518.43 481.39 519.83 481.39C549.26 481.39 577.76 472.76 602.27 456.43C601.29 454.97 593.49 443.26 592.52 441.8C570.91 456.2 545.78 463.81 519.83 463.81C518.43 463.81 511.42 463.81 498.79 463.81L498.79 446.23C511.42 446.23 518.43 446.23 519.83 446.23C542.31 446.23 564.07 439.64 582.77 427.18C581.79 425.71 573.99 414.01 573.02 412.55C557.21 423.08 538.82 428.65 519.83 428.65C518.43 428.65 511.42 428.65 498.79 428.65L498.79 411.07C511.42 411.07 518.43 411.07 519.83 411.07C535.34 411.07 550.36 406.53 563.27 397.93C562.29 396.46 554.49 384.76 553.51 383.3C543.51 389.97 531.86 393.5 519.83 393.5C518.43 393.5 511.42 393.5 498.79 393.5L498.79 375.33L481.21 375.33L481.21 393.5C468.58 393.5 461.57 393.5 460.17 393.5C448.14 393.5 436.49 389.97 426.49 383.3C425.51 384.76 417.71 396.46 416.73 397.92C429.64 406.53 444.66 411.07 460.17 411.07C461.57 411.07 468.58 411.07 481.21 411.07L481.21 428.65C468.58 428.65 461.57 428.65 460.17 428.65C441.17 428.65 422.79 423.08 406.98 412.55C406.01 414.01 398.21 425.71 397.23 427.18C415.93 439.64 437.69 446.23 460.17 446.23C461.57 446.23 468.58 446.23 481.21 446.23L481.21 463.81C468.58 463.81 461.57 463.81 460.17 463.81C434.22 463.81 409.09 456.2 387.48 441.8C386.51 443.26 378.71 454.97 377.73 456.43C402.24 472.76 430.74 481.39 460.17 481.39C462.97 481.39 469.99 481.39 481.21 481.39ZM517.51 534.71C519.03 532.09 519.88 530.63 520.05 530.34C526.11 519.93 537.66 515.07 549.47 517.96C558.75 520.23 566.37 528.04 568.43 537.39C570.33 546.03 568.13 554.65 562.39 561.07C560.51 563.17 545.45 580.02 543.56 582.12C540.54 585.5 536.2 587.44 531.66 587.44C525.58 587.44 520.11 584.06 517.39 578.62C516.51 576.86 512.12 568.08 504.22 552.29L475.78 552.29C467.88 568.08 463.49 576.86 462.61 578.62C459.89 584.06 454.42 587.44 448.34 587.44C443.8 587.44 439.46 585.5 436.44 582.12C434.55 580.02 419.49 563.17 417.6 561.07C411.87 554.66 409.67 546.03 411.57 537.39C413.63 528.04 421.25 520.23 430.53 517.96C442.35 515.07 453.89 519.93 459.95 530.34C460.12 530.63 460.97 532.09 462.49 534.71L517.51 534.71Z" id="bbfgVjGnZ"></path><path d="M428.48 534.71L446.05 534.71L446.05 552.29L428.48 552.29L428.48 534.71Z" id="abCf1s7Kw"></path><path d="M533.95 534.71L551.52 534.71L551.52 552.29L533.95 552.29L533.95 534.71Z" id="a4J0gTj8Lz"></path><path d="M344.43 151.91L261.1 220.09L344.43 151.91Z" id="bpxMAK9Ep"></path><path d="M345.46 458.09L262.13 378.62L345.46 458.09Z" id="a1Ki6pRUeQ"></path></defs><g><g><g><use xlink:href="#c1uF5mNxm3" opacity="1" fill="#34238c" fill-opacity="1"></use><g><use xlink:href="#c1uF5mNxm3" opacity="1" fill-opacity="0" stroke="#000000" stroke-width="1" stroke-opacity="0"></use></g></g><g><use xlink:href="#faC2kVb5C" opacity="1" fill="#34238c" fill-opacity="1"></use><g><use xlink:href="#faC2kVb5C" opacity="1" fill-opacity="0" stroke="#000000" stroke-width="1" stroke-opacity="0"></use></g></g><g><use xlink:href="#a3mDi2JTeD" opacity="1" fill="#34238c" fill-opacity="1"></use><g><use xlink:href="#a3mDi2JTeD" opacity="1" fill-opacity="0" stroke="#000000" stroke-width="1" stroke-opacity="0"></use></g></g><g><use xlink:href="#cakkpf56Dg" opacity="1" fill="#34238c" fill-opacity="1"></use><g><use xlink:href="#cakkpf56Dg" opacity="1" fill-opacity="0" stroke="#000000" stroke-width="1" stroke-opacity="0"></use></g></g><g><use xlink:href="#bKh072ghS" opacity="1" fill="#34238c" fill-opacity="1"></use><g><use xlink:href="#bKh072ghS" opacity="1" fill-opacity="0" stroke="#000000" stroke-width="1" stroke-opacity="0"></use></g></g><g><use xlink:href="#i58vSxb3H" opacity="1" fill="#34238c" fill-opacity="1"></use><g><use xlink:href="#i58vSxb3H" opacity="1" fill-opacity="0" stroke="#000000" stroke-width="1" stroke-opacity="0"></use></g></g><g><use xlink:href="#a7lMSY6pKK" opacity="1" fill="#34238c" fill-opacity="1"></use><g><use xlink:href="#a7lMSY6pKK" opacity="1" fill-opacity="0" stroke="#000000" stroke-width="1" stroke-opacity="0"></use></g></g><g><use xlink:href="#aV6Gk24KL" opacity="1" fill="#34238c" fill-opacity="1"></use><g><use xlink:href="#aV6Gk24KL" opacity="1" fill-opacity="0" stroke="#000000" stroke-width="1" stroke-opacity="0"></use></g></g><g><use xlink:href="#e16vUVrMVe" opacity="1" fill="#34238c" fill-opacity="1"></use><g><use xlink:href="#e16vUVrMVe" opacity="1" fill-opacity="0" stroke="#000000" stroke-width="1" stroke-opacity="0"></use></g></g><g><use xlink:href="#g196U4n8SN" opacity="1" fill="#34238c" fill-opacity="1"></use><g><use xlink:href="#g196U4n8SN" opacity="1" fill-opacity="0" stroke="#000000" stroke-width="1" stroke-opacity="0"></use></g></g><g><use xlink:href="#a1XG7zVSyb" opacity="1" fill="#34238c" fill-opacity="1"></use><g><use xlink:href="#a1XG7zVSyb" opacity="1" fill-opacity="0" stroke="#000000" stroke-width="1" stroke-opacity="0"></use></g></g><g><use xlink:href="#eOE1iFbtR" opacity="1" fill="#34238c" fill-opacity="1"></use><g><use xlink:href="#eOE1iFbtR" opacity="1" fill-opacity="0" stroke="#000000" stroke-width="1" stroke-opacity="0"></use></g></g><g><use xlink:href="#aatQ8NnV1" opacity="1" fill="#34238c" fill-opacity="1"></use><g><use xlink:href="#aatQ8NnV1" opacity="1" fill-opacity="0" stroke="#000000" stroke-width="1" stroke-opacity="0"></use></g></g><g><use xlink:href="#i7AwYNwMh" opacity="1" fill="#34238c" fill-opacity="1"></use><g><use xlink:href="#i7AwYNwMh" opacity="1" fill-opacity="0" stroke="#000000" stroke-width="1" stroke-opacity="0"></use></g></g><g><use xlink:href="#a3461XmiCH" opacity="1" fill="#34238c" fill-opacity="1"></use><g><use xlink:href="#a3461XmiCH" opacity="1" fill-opacity="0" stroke="#000000" stroke-width="1" stroke-opacity="0"></use></g></g><g><use xlink:href="#a52kYoMf7b" opacity="1" fill="#34238c" fill-opacity="1"></use><g><use xlink:href="#a52kYoMf7b" opacity="1" fill-opacity="0" stroke="#000000" stroke-width="1" stroke-opacity="0"></use></g></g><g><use xlink:href="#a38hpKx4" opacity="1" fill="#34238c" fill-opacity="1"></use><g><use xlink:href="#a38hpKx4" opacity="1" fill-opacity="0" stroke="#000000" stroke-width="1" stroke-opacity="0"></use></g></g><g><use xlink:href="#cuMWsNpZK" opacity="1" fill="#34238c" fill-opacity="1"></use><g><use xlink:href="#cuMWsNpZK" opacity="1" fill-opacity="0" stroke="#000000" stroke-width="1" stroke-opacity="0"></use></g></g><g><use xlink:href="#a1eyPMMO0q" opacity="1" fill="#34238c" fill-opacity="1"></use><g><use xlink:href="#a1eyPMMO0q" opacity="1" fill-opacity="0" stroke="#000000" stroke-width="1" stroke-opacity="0"></use></g></g><g><use xlink:href="#b1HiaNERgp" opacity="1" fill="#34238c" fill-opacity="1"></use><g><use xlink:href="#b1HiaNERgp" opacity="1" fill-opacity="0" stroke="#000000" stroke-width="1" stroke-opacity="0"></use></g></g><g><use xlink:href="#axCLlb8kx" opacity="1" fill="#34238c" fill-opacity="1"></use><g><use xlink:href="#axCLlb8kx" opacity="1" fill-opacity="0" stroke="#000000" stroke-width="1" stroke-opacity="0"></use></g></g><g><use xlink:href="#c5EYBQIase" opacity="1" fill="#34238c" fill-opacity="1"></use><g><use xlink:href="#c5EYBQIase" opacity="1" fill-opacity="0" stroke="#000000" stroke-width="1" stroke-opacity="0"></use></g></g><g><use xlink:href="#a9KgbJ2TB" opacity="1" fill="#34238c" fill-opacity="1"></use><g><use xlink:href="#a9KgbJ2TB" opacity="1" fill-opacity="0" stroke="#000000" stroke-width="1" stroke-opacity="0"></use></g></g><g><use xlink:href="#bbfgVjGnZ" opacity="1" fill="#34238c" fill-opacity="1"></use><g><use xlink:href="#bbfgVjGnZ" opacity="1" fill-opacity="0" stroke="#000000" stroke-width="1" stroke-opacity="0"></use></g></g><g><use xlink:href="#abCf1s7Kw" opacity="1" fill="#34238c" fill-opacity="1"></use><g><use xlink:href="#abCf1s7Kw" opacity="1" fill-opacity="0" stroke="#000000" stroke-width="1" stroke-opacity="0"></use></g></g><g><use xlink:href="#a4J0gTj8Lz" opacity="1" fill="#34238c" fill-opacity="1"></use><g><use xlink:href="#a4J0gTj8Lz" opacity="1" fill-opacity="0" stroke="#000000" stroke-width="1" stroke-opacity="0"></use></g></g><g><use xlink:href="#bpxMAK9Ep" opacity="1" fill="#34238c" fill-opacity="0"></use><g><use xlink:href="#bpxMAK9Ep" opacity="1" fill-opacity="0" stroke="#34238c" stroke-width="15" stroke-opacity="1"></use></g></g><g><use xlink:href="#a1Ki6pRUeQ" opacity="1" fill="#33238c" fill-opacity="0"></use><g><use xlink:href="#a1Ki6pRUeQ" opacity="1" fill-opacity="0" stroke="#34238c" stroke-width="15" stroke-opacity="1"></use></g></g></g></g></svg>