<?xml version="1.0" encoding="UTF-8" standalone="no"?>
<!DOCTYPE svg PUBLIC "-//W3C//DTD SVG 1.1//EN" "http://www.w3.org/Graphics/SVG/1.1/DTD/svg11.dtd">
<svg version="1.1" xmlns="http://www.w3.org/2000/svg" xmlns:xlink="http://www.w3.org/1999/xlink" preserveAspectRatio="xMidYMid meet" viewBox="0 0 640 640" width="640" height="640"><defs><path d="M58.42 83.87C58.42 80.72 58.42 55.56 58.42 52.42C58.42 46.63 63.11 41.93 68.9 41.93C74.69 41.93 79.38 46.63 79.38 52.42C79.38 55.56 79.38 80.72 79.38 83.87C79.38 89.66 74.69 94.35 68.9 94.35C63.11 94.35 58.42 89.66 58.42 83.87Z" id="aqCWqs1rK"></path><path d="M79.38 125.8C79.38 128.94 79.38 154.1 79.38 157.25C79.38 163.04 74.69 167.73 68.9 167.73C63.11 167.73 58.42 163.04 58.42 157.25C58.42 154.1 58.42 128.94 58.42 125.8C58.42 120.01 63.11 115.32 68.9 115.32C74.69 115.32 79.38 120.01 79.38 125.8Z" id="fmwOMrBxB"></path><path d="M89.87 115.32C84.08 115.32 79.38 110.62 79.38 104.83C79.38 99.04 84.08 94.35 89.87 94.35C93.01 94.35 118.17 94.35 121.31 94.35C127.1 94.35 131.8 99.04 131.8 104.83C131.8 110.62 127.1 115.32 121.31 115.32C115.02 115.32 93.01 115.32 89.87 115.32Z" id="cDmZlaIIA"></path><path d="M47.93 94.35C53.72 94.35 58.42 99.04 58.42 104.83C58.42 110.62 53.72 115.32 47.93 115.32C44.79 115.32 19.63 115.32 16.48 115.32C10.69 115.32 6 110.62 6 104.83C6 99.04 10.69 94.35 16.48 94.35C22.77 94.35 44.79 94.35 47.93 94.35Z" id="bc1iQ6zVw"></path><path d="M35.88 236.15C32.84 241.07 26.38 242.59 21.45 239.55C16.53 236.51 15.01 230.04 18.05 225.12C21.09 220.2 27.55 218.67 32.48 221.72C37.4 224.76 38.92 231.22 35.88 236.15Z" id="c1FMDVLwdu"></path><path d="M500.27 4.97C503.32 0.05 509.78 -1.48 514.7 1.57C519.63 4.61 521.15 11.07 518.11 16C515.06 20.92 508.6 22.45 503.68 19.4C498.75 16.36 497.23 9.9 500.27 4.97Z" id="g19FcNiWHH"></path><path d="M130.23 613.54C127.19 618.47 120.73 619.99 115.8 616.95C110.88 613.9 109.35 607.44 112.4 602.52C115.44 597.59 121.9 596.07 126.83 599.11C131.75 602.16 133.27 608.62 130.23 613.54Z" id="h15mT1IwAR"></path><path d="M612.46 487.74C609.41 492.67 602.95 494.19 598.03 491.15C593.1 488.1 591.58 481.64 594.62 476.72C597.67 471.79 604.13 470.27 609.05 473.31C613.98 476.36 615.5 482.82 612.46 487.74Z" id="cwjdSqRea"></path><path d="M562.58 55.6C560.34 46.06 561.93 36.22 567.09 27.88C572.24 19.55 580.33 13.72 589.87 11.47C599.4 9.21 609.25 10.81 617.59 15.97C625.93 21.12 631.76 29.21 634.01 38.75C636.26 48.29 634.66 58.13 629.5 66.47C622.57 77.68 610.54 83.86 598.23 83.86C591.65 83.86 585 82.09 579 78.39C570.66 73.23 564.84 65.14 562.58 55.6ZM613.6 43.57C612.63 39.48 610.14 36.02 606.56 33.8C602.99 31.59 598.77 30.91 594.68 31.87C590.59 32.84 587.13 35.34 584.92 38.91C582.71 42.48 582.02 46.7 582.99 50.79C583.95 54.88 586.45 58.34 590.02 60.55C597.4 65.11 607.11 62.82 611.67 55.45C613.88 51.88 614.56 47.66 613.6 43.57Z" id="a1do5sK1KX"></path><path d="M82.95 508.68C91.28 513.84 97.11 521.93 99.37 531.47C101.61 541.01 100.02 550.85 94.86 559.19C87.93 570.4 75.9 576.57 63.59 576.57C57.01 576.57 50.35 574.8 44.36 571.1C36.02 565.94 30.19 557.85 27.94 548.31C25.69 538.77 27.29 528.93 32.44 520.59C37.6 512.26 45.69 506.43 55.23 504.18C64.76 501.93 74.61 503.53 82.95 508.68ZM55.39 553.27C62.76 557.83 72.47 555.54 77.03 548.16C79.24 544.59 79.92 540.37 78.96 536.28C78 532.19 75.5 528.73 71.92 526.51C68.35 524.31 64.13 523.62 60.04 524.59C55.95 525.55 52.49 528.05 50.28 531.62C48.07 535.19 47.38 539.41 48.35 543.5C49.31 547.59 51.81 551.06 55.39 553.27Z" id="c6jLsp7JSn"></path><path d="M81.77 395.44C83.92 391.15 94.65 369.7 113.95 331.09C116.95 299.37 118.62 281.74 118.95 278.22C119.09 211.08 147.22 146.23 196.17 100.22C245.93 53.45 311.03 30.03 379.48 34.29C438.94 37.98 495.12 63.69 537.67 106.69C580.2 149.67 605.34 206.12 608.44 265.63C611.21 318.75 597.23 370.07 568.03 414.04C560.22 425.8 553.52 438.26 548.13 451.09C546.43 455.11 532.87 487.32 531.18 491.35C512.75 535.16 503.39 581.47 503.39 629C503.39 634.79 498.7 639.48 492.91 639.48C467.1 639.48 260.63 639.48 234.82 639.48C231.59 639.48 228.54 637.99 226.56 635.45C224.57 632.9 223.86 629.58 224.64 626.45C225.66 622.4 230.72 602.17 239.82 565.74C222.73 565.74 213.24 565.74 211.34 565.74C167.68 565.74 132.15 530.21 132.15 486.55C132.15 484.46 132.15 473.98 132.15 455.12C124.05 455.12 119.55 455.12 118.65 455.12C104.26 455.12 91.15 447.81 83.58 435.56C76.01 423.32 75.34 408.32 81.77 395.44ZM153.13 444.64C153.13 448.83 153.13 482.36 153.13 486.55C153.13 518.65 179.24 544.77 211.34 544.77C215.54 544.77 249.06 544.77 253.26 544.77C256.48 544.77 259.53 546.25 261.52 548.8C263.51 551.35 264.21 554.67 263.43 557.8C262.41 561.84 257.35 582.08 248.24 618.51C388.84 618.51 466.96 618.51 482.58 618.51C483.86 571.85 493.69 526.39 511.86 483.22C513.56 479.19 527.11 446.98 528.81 442.95C534.71 428.92 542.04 415.29 550.57 402.44C577.27 362.24 590.04 315.31 587.51 266.72C584.67 212.35 561.68 160.75 522.77 121.43C483.85 82.1 432.5 58.58 378.18 55.21C315.55 51.32 256.03 72.73 210.53 115.49C165 158.29 139.92 216.25 139.92 278.71C139.92 279.04 139.91 279.37 139.88 279.7C139.35 285.23 135.17 329.47 134.65 335C134.52 336.29 134.16 337.55 133.59 338.71C130.28 345.32 103.84 398.21 100.53 404.82C97.32 411.24 97.64 418.43 101.42 424.54C105.2 430.65 111.48 434.15 118.66 434.15C120.26 434.15 128.25 434.15 142.64 434.15C149.63 437.28 153.13 440.78 153.13 444.64Z" id="aa0EyyDOn"></path><path d="M477.19 159.4C473.67 158.03 469.7 159.78 468.34 163.3C466.97 166.83 468.71 170.79 472.24 172.16C488.59 178.52 506.25 183.85 524.81 188.05C524.81 196.41 524.81 263.29 524.81 271.65C524.81 288.08 516.22 309.96 501.15 333.38C501.15 332.08 501.15 321.7 501.15 320.4C501.15 294.6 487.18 281.86 473.78 274.59C477.82 267.97 480.14 260.2 480.14 251.9C480.14 227.79 460.52 208.17 436.4 208.17C412.29 208.17 392.67 227.79 392.67 251.9C392.67 260.19 394.99 267.95 399.02 274.56C391.41 278.65 383.78 284.38 378.5 293.26C373.23 284.39 365.6 278.66 357.99 274.57C362.02 267.95 364.34 260.19 364.34 251.9C364.34 227.79 344.72 208.17 320.6 208.17C296.49 208.17 276.87 227.79 276.87 251.9C276.87 260.2 279.2 267.96 283.23 274.58C269.84 281.85 255.86 294.59 255.86 320.4C255.86 321.7 255.86 332.11 255.86 333.41C240.79 309.98 232.19 288.09 232.19 271.65C232.19 263.29 232.19 196.41 232.19 188.05C310.56 170.29 350.12 137.67 371.6 119.97C374.1 117.9 376.41 116 378.51 114.34C380.6 116 382.91 117.9 385.42 119.98C393.43 126.59 403.4 134.81 416.71 143.63C419.86 145.72 424.11 144.85 426.2 141.7C428.28 138.55 427.42 134.31 424.27 132.22C411.56 123.8 401.9 115.83 394.14 109.42C389.72 105.78 385.91 102.63 382.48 100.19C380.1 98.49 376.91 98.49 374.53 100.19C371.1 102.63 367.3 105.77 362.89 109.41C340.35 127.99 302.63 159.09 223.92 175.85C220.76 176.52 218.5 179.31 218.5 182.54C218.5 191.45 218.5 262.74 218.5 271.65C218.5 287.39 224.52 306.18 236.4 327.49C246.87 346.28 261.42 366.04 278.48 384.64C307.17 415.91 348.51 449.33 378.51 449.33C408.5 449.33 449.83 415.91 478.52 384.63C486.07 376.4 493.13 367.94 499.56 359.43C499.72 359.24 514.87 337.76 520.6 327.48C532.48 306.18 538.5 287.39 538.5 271.65C538.5 262.74 538.5 191.45 538.5 182.54C538.5 179.31 536.24 176.52 533.07 175.85C513.25 171.64 494.45 166.11 477.19 159.4ZM466.45 251.9C466.45 268.46 452.97 281.93 436.4 281.93C419.84 281.93 406.36 268.46 406.36 251.9C406.36 235.34 419.84 221.86 436.4 221.86C452.97 221.86 466.45 235.34 466.45 251.9ZM399.21 334.39C399.21 345.81 389.92 355.11 378.51 355.11C367.09 355.11 357.8 345.81 357.8 334.39C357.8 322.97 367.09 313.68 378.51 313.68C389.92 313.68 399.21 322.97 399.21 334.39ZM350.65 251.9C350.65 268.46 337.17 281.93 320.6 281.93C304.04 281.93 290.56 268.46 290.56 251.9C290.56 235.34 304.04 221.86 320.6 221.86C337.17 221.86 350.65 235.34 350.65 251.9ZM328.42 412.07C315.43 402.24 301.75 389.76 288.57 375.38C281.69 367.88 275.33 360.31 269.55 352.79C269.55 349.55 269.55 323.64 269.55 320.4C269.55 300.19 280.07 291.21 292.37 285.25C300 291.71 309.85 295.62 320.6 295.62C331.35 295.62 341.2 291.71 348.83 285.26C356.13 288.8 363.28 293.67 367.56 301.79C353.95 306.38 344.11 319.25 344.11 334.39C344.11 340.27 345.6 345.82 348.22 350.67C338.28 356.45 328.42 366.35 328.42 385.54C328.42 390.85 328.42 409.41 328.42 412.07ZM378.51 435.64C369.01 435.64 356.29 430.55 342.11 421.59C342.11 417.98 342.11 389.15 342.11 385.54C342.11 371.94 348.95 365.56 357.19 361.36C363.05 366.01 370.46 368.8 378.51 368.8C386.56 368.8 393.96 366.01 399.83 361.36C408.06 365.57 414.91 371.95 414.91 385.54C414.91 387.95 414.91 399.96 414.91 421.58C396.97 430.95 384.84 435.64 378.51 435.64ZM487.46 352.76C481.68 360.29 475.32 367.87 468.43 375.38C455.25 389.75 441.58 402.23 428.6 412.06C428.6 409.41 428.6 388.19 428.6 385.54C428.6 366.36 418.73 356.45 408.8 350.68C411.41 345.82 412.9 340.28 412.9 334.39C412.9 319.25 403.06 306.37 389.45 301.79C393.74 293.66 400.88 288.79 408.17 285.25C415.8 291.71 425.65 295.62 436.4 295.62C447.15 295.62 457.01 291.71 464.63 285.26C476.94 291.21 487.46 300.2 487.46 320.4C487.46 326.87 487.46 346.29 487.46 352.76Z" id="atUVKH7ul"></path><path d="M443.68 159.37C444.66 159.86 445.7 160.09 446.72 160.09C449.23 160.09 451.64 158.7 452.84 156.3C454.53 152.92 453.14 148.8 449.76 147.11C446.38 145.42 442.27 146.79 440.58 150.17C438.89 153.55 440.26 157.66 443.64 159.35C443.65 159.36 443.67 159.37 443.68 159.37Z" id="b8E1Urqgk"></path></defs><g><g><g><use xlink:href="#aqCWqs1rK" opacity="1" fill="#34238c" fill-opacity="1"></use><g><use xlink:href="#aqCWqs1rK" opacity="1" fill-opacity="0" stroke="#000000" stroke-width="1" stroke-opacity="0"></use></g></g><g><use xlink:href="#fmwOMrBxB" opacity="1" fill="#34238c" fill-opacity="1"></use><g><use xlink:href="#fmwOMrBxB" opacity="1" fill-opacity="0" stroke="#000000" stroke-width="1" stroke-opacity="0"></use></g></g><g><use xlink:href="#cDmZlaIIA" opacity="1" fill="#34238c" fill-opacity="1"></use><g><use xlink:href="#cDmZlaIIA" opacity="1" fill-opacity="0" stroke="#000000" stroke-width="1" stroke-opacity="0"></use></g></g><g><use xlink:href="#bc1iQ6zVw" opacity="1" fill="#34238c" fill-opacity="1"></use><g><use xlink:href="#bc1iQ6zVw" opacity="1" fill-opacity="0" stroke="#000000" stroke-width="1" stroke-opacity="0"></use></g></g><g><use xlink:href="#c1FMDVLwdu" opacity="1" fill="#34238c" fill-opacity="1"></use><g><use xlink:href="#c1FMDVLwdu" opacity="1" fill-opacity="0" stroke="#000000" stroke-width="1" stroke-opacity="0"></use></g></g><g><use xlink:href="#g19FcNiWHH" opacity="1" fill="#34238c" fill-opacity="1"></use><g><use xlink:href="#g19FcNiWHH" opacity="1" fill-opacity="0" stroke="#000000" stroke-width="1" stroke-opacity="0"></use></g></g><g><use xlink:href="#h15mT1IwAR" opacity="1" fill="#34238c" fill-opacity="1"></use><g><use xlink:href="#h15mT1IwAR" opacity="1" fill-opacity="0" stroke="#000000" stroke-width="1" stroke-opacity="0"></use></g></g><g><use xlink:href="#cwjdSqRea" opacity="1" fill="#34238c" fill-opacity="1"></use><g><use xlink:href="#cwjdSqRea" opacity="1" fill-opacity="0" stroke="#000000" stroke-width="1" stroke-opacity="0"></use></g></g><g><use xlink:href="#a1do5sK1KX" opacity="1" fill="#34238c" fill-opacity="1"></use><g><use xlink:href="#a1do5sK1KX" opacity="1" fill-opacity="0" stroke="#000000" stroke-width="1" stroke-opacity="0"></use></g></g><g><use xlink:href="#c6jLsp7JSn" opacity="1" fill="#34238c" fill-opacity="1"></use><g><use xlink:href="#c6jLsp7JSn" opacity="1" fill-opacity="0" stroke="#000000" stroke-width="1" stroke-opacity="0"></use></g></g><g><use xlink:href="#aa0EyyDOn" opacity="1" fill="#34238c" fill-opacity="1"></use><g><use xlink:href="#aa0EyyDOn" opacity="1" fill-opacity="0" stroke="#000000" stroke-width="1" stroke-opacity="0"></use></g></g><g><use xlink:href="#atUVKH7ul" opacity="1" fill="#34238c" fill-opacity="1"></use><g><use xlink:href="#atUVKH7ul" opacity="1" fill-opacity="0" stroke="#000000" stroke-width="1" stroke-opacity="0"></use></g></g><g><use xlink:href="#b8E1Urqgk" opacity="1" fill="#34238c" fill-opacity="1"></use><g><use xlink:href="#b8E1Urqgk" opacity="1" fill-opacity="0" stroke="#000000" stroke-width="1" stroke-opacity="0"></use></g></g></g></g></svg>