<svg id="Capa_1" enable-background="new 0 0 512 512" height="512" viewBox="0 0 512 512" width="512" xmlns="http://www.w3.org/2000/svg"><g><g><g><g><g><g><g><circle cx="256" cy="256" fill="#a260e5" r="256"/></g></g></g></g></g></g><path d="m410.397 116.769-32.957-32.957-32 59.204 56.668 56.668-.418 4.184-120.057-120.057-50.063 44.731v116.467l-70.981-70.981-65.169 67.421 35.041 35.041 11.863 156.755 76.002 76.002c12.295 1.813 24.875 2.753 37.674 2.753 141.385 0 256-114.615 256-256 0-15.714-1.416-31.097-4.127-46.029l-97.088-97.088z" fill="#7a3eb5"/><path d="m410.785 112.883c-8.717-9.831-21.252-15.47-34.392-15.47h-21.502v32h21.502c4.05 0 7.761 1.669 10.448 4.7s3.899 6.915 3.415 10.936l-13.763 114.115c-.846 7.007-6.806 12.292-13.863 12.292h-98.189c-7.058 0-13.018-5.284-13.863-12.292l-13.763-114.115c-.484-4.021.729-7.905 3.415-10.936 2.688-3.031 6.398-4.7 10.448-4.7h21.502v-32h-21.502c-13.14 0-25.675 5.639-34.392 15.47s-12.814 22.952-11.241 35.997l13.763 114.116c2.782 23.066 22.399 40.46 45.633 40.46h33.095v49.922c0 43.381-35.293 78.674-78.675 78.674-43.381 0-78.674-35.293-78.674-78.674v-123.82h-32v123.819c0 61.026 49.648 110.674 110.675 110.674 61.025 0 110.674-49.648 110.674-110.674v-49.922h33.095c23.233 0 42.851-17.394 45.633-40.46l13.763-114.116c1.573-13.044-2.525-26.164-11.242-35.996z" fill="#fff"/><path d="m256.121 97.413h16.06v32h-16.06z" fill="#fff"/><path d="m410.785 112.883c-8.717-9.831-21.252-15.47-34.392-15.47h-21.502v32h21.502c4.05 0 7.761 1.669 10.448 4.7s3.899 6.915 3.415 10.936l-13.763 114.115c-.846 7.007-6.806 12.292-13.863 12.292h-48.744v138.582c9.928-16.585 15.649-35.964 15.649-56.66v-49.922h33.095c23.233 0 42.851-17.394 45.633-40.46l13.763-114.116c1.574-13.045-2.524-26.165-11.241-35.997z" fill="#e9edf5"/><g><g><path d="m249.633 83.811h32v59.204h-32z" fill="#64e1dc"/></g><g><path d="m345.439 83.811h32v59.204h-32z" fill="#00c8c8"/></g></g><g><circle cx="124.188" cy="204.056" fill="#64e1dc" r="47.188"/></g></g></svg>