<?xml version="1.0" encoding="UTF-8" standalone="no"?>
<!DOCTYPE svg PUBLIC "-//W3C//DTD SVG 1.1//EN" "http://www.w3.org/Graphics/SVG/1.1/DTD/svg11.dtd">
<svg version="1.1" xmlns="http://www.w3.org/2000/svg" xmlns:xlink="http://www.w3.org/1999/xlink" preserveAspectRatio="xMidYMid meet" viewBox="0 0 640 640" width="640" height="640"><defs><path d="M266.61 640C274.3 640 282.49 637.49 289.28 632.36C295.8 637.27 303.79 640 312.08 640C322.08 640 402.11 640 412.11 640C433 640 450 623 450 602.11C450 581.22 433 564.22 412.11 564.22C406.69 564.22 363.36 564.22 357.94 564.22C372.36 549.42 372.25 525.66 357.59 511C342.82 496.23 318.78 496.23 304.01 511C303.03 511.98 298.14 516.87 289.34 525.66C289.34 462.41 289.34 427.27 289.34 420.24C289.34 399.35 272.35 382.35 251.45 382.35C250.95 382.35 248.42 382.35 243.87 382.35L243.87 367.2C257.52 367.2 265.09 367.2 266.61 367.2C270.79 367.2 274.19 363.81 274.19 359.62C274.19 355.07 274.19 318.7 274.19 314.15C274.19 301.62 263.99 291.42 251.45 291.42C236.3 291.42 115.05 291.42 99.89 291.42C87.35 291.42 77.16 301.62 77.16 314.15C77.16 318.7 77.16 355.07 77.16 359.62C77.16 363.81 80.55 367.2 84.73 367.2C86.25 367.2 93.83 367.2 107.47 367.2L107.47 382.35C102.92 382.35 100.4 382.35 99.89 382.35C79 382.35 62 399.35 62 420.24C62 439.95 62 597.56 62 617.27C62 629.8 72.2 640 84.73 640C121.11 640 248.42 640 266.61 640ZM77.16 594.53C168.48 594.53 219.21 594.53 229.36 594.53C227.23 605.03 229.65 616.12 236.2 624.84C221.05 624.84 99.88 624.84 84.73 624.84C80.56 624.84 77.16 621.44 77.16 617.27C77.16 617.27 77.16 609.69 77.16 594.53ZM277.21 559.22L309.36 591.37C293.29 607.45 284.35 616.38 282.57 618.17C273.55 627.19 259.15 626.9 250.42 618.17C241.6 609.36 241.47 594.96 250.42 586.02C253.99 582.44 262.92 573.51 277.21 559.22ZM342.79 579.38C343.88 579.38 349.3 579.38 359.06 579.38L359.06 624.84C330.87 624.84 315.21 624.84 312.08 624.84C307.96 624.84 303.97 623.72 300.5 621.67C312.61 609.56 330.66 591.51 342.79 579.38ZM412.11 624.84C409.58 624.84 396.95 624.84 374.22 624.84L374.22 579.38C396.95 579.38 409.58 579.38 412.11 579.38C424.65 579.38 434.84 589.58 434.84 602.11C434.84 614.65 424.65 624.84 412.11 624.84ZM314.72 521.72C323.59 512.86 338.01 512.85 346.88 521.72C355.74 530.58 355.74 545.01 346.88 553.87C345.04 555.71 354.98 545.76 320.08 580.66C317.94 578.51 307.22 567.8 287.93 548.51C302.22 534.22 311.15 525.29 314.72 521.72ZM92.31 314.15C92.31 309.98 95.71 306.58 99.89 306.58C115.05 306.58 236.3 306.58 251.45 306.58C255.63 306.58 259.03 309.98 259.03 314.15C259.03 316.68 259.03 329.31 259.03 352.04L243.87 352.04C243.87 338.4 243.87 330.82 243.87 329.31C243.87 325.12 240.48 321.73 236.3 321.73C232.11 321.73 228.72 325.12 228.72 329.31C228.72 330.82 228.72 338.4 228.72 352.04L213.56 352.04C213.56 338.4 213.56 330.82 213.56 329.31C213.56 325.12 210.17 321.73 205.98 321.73C201.8 321.73 198.41 325.12 198.41 329.31C198.41 330.82 198.41 338.4 198.41 352.04L183.25 352.04C183.25 338.4 183.25 330.82 183.25 329.31C183.25 325.12 179.86 321.73 175.67 321.73C171.49 321.73 168.09 325.12 168.09 329.31C168.09 330.82 168.09 338.4 168.09 352.04L152.94 352.04C152.94 338.4 152.94 330.82 152.94 329.31C152.94 325.12 149.54 321.73 145.36 321.73C141.17 321.73 137.78 325.12 137.78 329.31C137.78 330.82 137.78 338.4 137.78 352.04L122.63 352.04C122.63 338.4 122.63 330.82 122.63 329.31C122.63 325.12 119.23 321.73 115.05 321.73C110.86 321.73 107.47 325.12 107.47 329.31C107.47 330.82 107.47 338.4 107.47 352.04L92.31 352.04C92.31 331.84 92.31 319.21 92.31 314.15ZM122.63 367.2L228.72 367.2L228.72 382.35L122.63 382.35L122.63 367.2ZM251.45 397.51C263.99 397.51 274.19 407.71 274.19 420.24C274.19 420.75 274.19 423.27 274.19 427.82C235.54 427.82 214.07 427.82 209.77 427.82C205.59 427.82 202.2 431.21 202.2 435.4C202.2 439.58 205.59 442.98 209.77 442.98C214.07 442.98 235.54 442.98 274.19 442.98C274.19 501.68 274.19 534.29 274.19 540.82C268.33 546.67 249.25 565.75 239.7 575.3C238.42 576.58 237.25 577.95 236.17 579.38C225.57 579.38 172.57 579.38 77.16 579.38L77.16 442.98C115.8 442.98 137.28 442.98 141.57 442.98C145.76 442.98 149.15 439.58 149.15 435.4C149.15 431.21 145.76 427.82 141.57 427.82C137.28 427.82 115.8 427.82 77.16 427.82C77.16 423.27 77.16 420.75 77.16 420.24C77.16 407.71 87.35 397.51 99.89 397.51C130.2 397.51 236.3 397.51 251.45 397.51Z" id="aqnoKmOUX"></path><path d="M122.63 526.33C122.63 530.52 126.02 533.91 130.2 533.91C131.72 533.91 139.3 533.91 152.94 533.91C152.94 547.55 152.94 555.13 152.94 556.64C152.94 560.83 156.33 564.22 160.52 564.22C163.55 564.22 187.8 564.22 190.83 564.22C195.01 564.22 198.41 560.83 198.41 556.64C198.41 555.13 198.41 547.55 198.41 533.91C212.05 533.91 219.62 533.91 221.14 533.91C225.33 533.91 228.72 530.52 228.72 526.33C228.72 523.3 228.72 499.05 228.72 496.02C228.72 491.84 225.33 488.44 221.14 488.44C219.62 488.44 212.05 488.44 198.41 488.44C198.41 474.8 198.41 467.23 198.41 465.71C198.41 461.52 195.01 458.13 190.83 458.13C187.8 458.13 163.55 458.13 160.52 458.13C156.33 458.13 152.94 461.52 152.94 465.71C152.94 467.23 152.94 474.8 152.94 488.44C139.3 488.44 131.72 488.44 130.2 488.44C126.02 488.44 122.63 491.84 122.63 496.02C122.63 502.08 122.63 523.3 122.63 526.33ZM137.78 503.6C151.42 503.6 159 503.6 160.52 503.6C164.7 503.6 168.09 500.21 168.09 496.02C168.09 494.51 168.09 486.93 168.09 473.29L183.25 473.29C183.25 486.93 183.25 494.51 183.25 496.02C183.25 500.21 186.64 503.6 190.83 503.6C192.34 503.6 199.92 503.6 213.56 503.6L213.56 518.75C199.92 518.75 192.34 518.75 190.83 518.75C186.64 518.75 183.25 522.15 183.25 526.33C183.25 527.85 183.25 535.43 183.25 549.07L168.09 549.07C168.09 535.43 168.09 527.85 168.09 526.33C168.09 522.15 164.7 518.75 160.52 518.75C159 518.75 151.42 518.75 137.78 518.75L137.78 503.6Z" id="a1oq56hsDK"></path><path d="M175.67 427.82C171.49 427.82 168.09 431.21 168.09 435.4C168.09 439.58 171.49 442.98 175.67 442.98C179.86 442.98 183.25 439.58 183.25 435.4C183.25 431.21 179.86 427.82 175.67 427.82Z" id="a97kTGHQV1"></path><path d="M525.21 480C533.36 480.01 541.43 478.45 548.98 475.42C550.89 474.66 560.41 470.85 577.54 464C610.22 464 628.37 464 632 464C636.42 464 640 460.42 640 456C640 446.4 640 369.6 640 360C640 355.58 636.42 352 632 352C628.39 352 610.36 352 577.89 352L550.54 338.33C544.45 320.04 541.06 309.89 540.39 307.85C535.31 292.64 518.87 284.42 503.66 289.49C490.1 294 481.84 307.72 484.19 321.81C484.35 322.76 485.14 327.49 486.56 336C443.61 336 419.76 336 414.99 336C417.09 327.88 415.9 319.25 411.68 312C413.71 312 429.97 312 432 312C436.42 312 440 308.42 440 304C440 299.73 440 278.4 440 240C468.8 240 484.8 240 488 240C505.66 239.98 519.98 225.66 520 208C520 190.4 520 49.6 520 32C519.98 14.34 505.66 0.02 488 0C473.6 0 358.4 0 344 0C326.34 0.02 312.02 14.34 312 32C312 49.6 312 190.4 312 208C312.02 225.66 326.34 239.98 344 240C347.2 240 363.2 240 392 240L392 285.33C391.04 284.05 390.51 283.34 390.4 283.2C387.75 279.67 382.73 278.95 379.2 281.6C378.59 282.05 378.05 282.59 377.6 283.2C375.68 285.76 360.32 306.24 358.4 308.8C348.72 321.69 350.16 339.78 361.76 350.98C356.78 363.26 362.69 377.25 374.97 382.24C377.84 383.4 380.9 384 384 384C386.54 384 406.84 384 409.38 384C405.65 394.52 409.68 406.23 419.1 412.22C412.83 423.32 416.34 437.38 427.1 444.22C420.59 455.76 424.65 470.38 436.19 476.9C439.79 478.93 443.86 480 448 480C448 480 517.49 480 525.21 480ZM440 416C443.2 416 468.8 416 472 416C476.42 416 480 419.58 480 424C480 428.42 476.42 432 472 432C468.8 432 443.2 432 440 432C435.58 432 432 428.42 432 424C432 419.58 435.58 416 440 416ZM448 464C443.58 464 440 460.42 440 456C440 451.58 443.58 448 448 448C451.2 448 476.8 448 480 448C484.42 448 488 451.58 488 456C488 460.42 484.42 464 480 464C473.6 464 451.2 464 448 464ZM424 296L408 296L408 280L424 280L424 296ZM424 264L408 264L408 240L424 240L424 264ZM344 224C335.17 223.99 328.01 216.83 328 208C328 190.4 328 49.6 328 32C328.01 23.17 335.17 16.01 344 16C358.4 16 473.6 16 488 16C496.83 16.01 503.99 23.17 504 32C504 49.6 504 190.4 504 208C503.99 216.83 496.83 223.99 488 224C459.2 224 372.8 224 344 224ZM371.2 318.4C372.05 317.26 376.32 311.57 384 301.33C391.68 311.57 395.95 317.26 396.8 318.4C402.1 325.47 400.67 335.5 393.6 340.8C386.53 346.1 376.5 344.67 371.2 337.6C369.12 334.83 368 331.46 368 328C368.01 324.54 369.13 321.17 371.2 318.4ZM385.06 368C382 368.03 379.12 366.56 377.35 364.06C376.27 362.61 375.81 360.79 376.06 359C386.31 361.62 397.2 359 405.13 352C410.81 352 439.17 352 490.23 352C492.67 359.3 494.02 363.36 494.29 364.17C501.4 385.58 521.44 400.02 544 400C544 398.4 544 385.6 544 384C528.33 384.01 514.41 373.98 509.47 359.11C509.18 358.24 506.86 351.27 506.57 350.4C504.72 344.85 503.31 339.17 502.35 333.4C502.11 332.01 500.26 320.9 500.03 319.51C499.49 316.5 499.98 313.4 501.44 310.71C504.07 305.97 509.36 303.35 514.72 304.14C519.7 304.94 523.79 308.48 525.32 313.28C526.43 316.6 535.3 343.21 536.41 346.53C537.08 348.55 538.52 350.21 540.42 351.16C543.62 352.76 569.22 365.56 572.42 367.16C573.53 367.71 574.76 368 576 368C579.2 368 595.2 368 624 368L624 448C595.2 448 579.2 448 576 448C574.98 448 573.97 448.19 573.03 448.57C570.03 449.77 546.04 459.37 543.04 460.57C537.37 462.84 531.32 464.01 525.21 464C522.96 464 504.88 464 502.62 464C506.35 453.48 502.32 441.77 492.9 435.78C499.17 424.68 495.66 410.62 484.9 403.78C487.15 399.8 488.22 395.25 487.96 390.68C487.27 377.86 476.27 368 463.42 368C447.75 368 400.74 368 385.06 368ZM432 384C435.2 384 460.8 384 464 384C468.42 384 472 387.58 472 392C472 396.42 468.42 400 464 400C460.8 400 435.2 400 432 400C427.58 400 424 396.42 424 392C424 387.58 427.58 384 432 384Z" id="fzt4KMrIe"></path><path d="M480 144C484.42 144 488 140.42 488 136C488 126.4 488 49.6 488 40C488 35.58 484.42 32 480 32C467.2 32 364.8 32 352 32C347.58 32 344 35.58 344 40C344 49.6 344 126.4 344 136C344 140.42 347.58 144 352 144C377.6 144 467.2 144 480 144ZM360 48L472 48L472 128L360 128L360 48Z" id="a2pLk1ede0"></path><path d="M408 72C412.42 72 416 68.42 416 64C416 59.58 412.42 56 408 56C405.6 56 386.4 56 384 56C379.58 56 376 59.58 376 64C376 66.4 376 85.6 376 88C376 92.42 379.58 96 384 96C385.2 96 394.8 96 396 96C398.21 96 400 97.79 400 100C400 102.21 398.21 104 396 104C394.8 104 385.2 104 384 104C379.58 104 376 107.58 376 112C376 116.42 379.58 120 384 120C385.2 120 394.8 120 396 120C407.05 120 416 111.05 416 100C416 88.95 407.05 80 396 80C395.73 80 394.4 80 392 80L392 72C400.53 72 405.87 72 408 72Z" id="a5kX7ZP946"></path><path d="M456 72C460.42 72 464 68.42 464 64C464 59.58 460.42 56 456 56C454.4 56 441.6 56 440 56C431.17 56.01 424.01 63.17 424 72C424 74.8 424 97.2 424 100C424 111.05 432.95 120 444 120C455.05 120 464 111.05 464 100C464 88.95 455.05 80 444 80C443.73 80 442.4 80 440 80L440 72C448.53 72 453.87 72 456 72ZM444 96C446.21 96 448 97.79 448 100C448 102.21 446.21 104 444 104C441.79 104 440 102.21 440 100C440 99.73 440 98.4 440 96C442.13 96 443.47 96 444 96Z" id="a1tNTXSrUm"></path><path d="M424 208C437.25 208 448 197.25 448 184C448 170.75 437.25 160 424 160C422.4 160 409.6 160 408 160C394.75 160 384 170.75 384 184C384 197.25 394.75 208 408 208C411.2 208 420.8 208 424 208ZM408 176C409.6 176 422.4 176 424 176C428.42 176 432 179.58 432 184C432 188.42 428.42 192 424 192C422.4 192 409.6 192 408 192C403.58 192 400 188.42 400 184C400 179.58 403.58 176 408 176Z" id="b2Yw5c4oZR"></path><path d="M352 168C347.58 168 344 171.58 344 176C344 180.42 347.58 184 352 184C353.6 184 366.4 184 368 184C372.42 184 376 180.42 376 176C376 171.58 372.42 168 368 168C364.8 168 353.6 168 352 168Z" id="cezYQiJfq"></path><path d="M352 192C347.58 192 344 195.58 344 200C344 204.42 347.58 208 352 208C353.6 208 366.4 208 368 208C372.42 208 376 204.42 376 200C376 195.58 372.42 192 368 192C364.8 192 353.6 192 352 192Z" id="b3l8UkR6WE"></path><path d="M464 192C459.58 192 456 195.58 456 200C456 204.42 459.58 208 464 208C465.6 208 478.4 208 480 208C484.42 208 488 204.42 488 200C488 195.58 484.42 192 480 192C476.8 192 465.6 192 464 192Z" id="cbYWdYPTJy"></path><path d="M464 168C459.58 168 456 171.58 456 176C456 180.42 459.58 184 464 184C465.6 184 478.4 184 480 184C484.42 184 488 180.42 488 176C488 171.58 484.42 168 480 168C476.8 168 465.6 168 464 168Z" id="bGByRFGl4"></path><path d="M304 321.65L328 321.65L328 337.65L304 337.65L304 321.65Z" id="a1SMRuNm57"></path><path d="M333.06 388L345.06 367.22L358.92 375.22L346.92 396L333.06 388Z" id="aIkm0BSRB"></path><path d="M333.07 271.28L346.92 263.28L358.92 284.07L345.07 292.07L333.07 271.28Z" id="aD950RW9"></path><path d="M90.55 37.19C90.55 37.94 90.55 41.68 90.55 48.41L109.78 48.41C109.78 41.68 109.78 37.94 109.78 37.19C109.78 27.29 117.84 19.24 127.74 19.24C137.64 19.24 145.69 27.29 145.69 37.19C145.69 37.94 145.69 41.68 145.69 48.41L164.93 48.41C164.93 41.68 164.93 37.94 164.93 37.19C164.93 16.68 148.24 0 127.74 0C107.23 0 90.55 16.68 90.55 37.19Z" id="badXhHgEW"></path><path d="M128.06 260.33C127.99 260.33 127.48 260.33 127.42 260.33C113.1 260.33 101.45 248.68 101.45 234.36C99.52 234.36 84.13 234.36 82.21 234.36C82.21 259.29 102.49 279.57 127.42 279.57C127.48 279.57 127.99 279.57 128.06 279.57C152.99 279.57 173.26 259.29 173.26 234.36C171.98 234.36 165.57 234.36 154.03 234.36C146.26 251.68 137.6 260.33 128.06 260.33Z" id="hw8zGpX5w"></path><path d="M224.88 188.26C224.88 155.52 224.88 137.33 224.88 133.69C224.88 79.6 181.3 35.59 127.74 35.59C74.17 35.59 30.59 79.6 30.59 133.69C30.59 137.33 30.59 155.52 30.59 188.26C14.2 213.76 5.09 227.93 3.27 230.76C1.36 233.72 1.23 237.49 2.91 240.57C4.6 243.66 7.84 245.59 11.36 245.59C34.63 245.59 220.84 245.59 244.12 245.59C247.64 245.59 250.88 243.66 252.56 240.58C254.25 237.49 254.11 233.73 252.21 230.77C248.57 225.1 239.46 210.93 224.88 188.26ZM48.3 196.28C49.3 194.73 49.83 192.93 49.83 191.08C49.83 185.34 49.83 139.43 49.83 133.69C49.83 90.21 84.78 54.82 127.74 54.82C170.7 54.82 205.65 90.21 205.65 133.69C205.65 139.43 205.65 185.34 205.65 191.08C205.65 192.93 206.18 194.73 207.17 196.28C208.46 198.29 214.9 208.31 226.5 226.35L28.97 226.35C40.57 208.31 47.01 198.29 48.3 196.28Z" id="a1M2jICwkM"></path></defs><g><g><g><use xlink:href="#aqnoKmOUX" opacity="1" fill="#34238c" fill-opacity="1"></use><g><use xlink:href="#aqnoKmOUX" opacity="1" fill-opacity="0" stroke="#000000" stroke-width="1" stroke-opacity="0"></use></g></g><g><use xlink:href="#a1oq56hsDK" opacity="1" fill="#34238c" fill-opacity="1"></use><g><use xlink:href="#a1oq56hsDK" opacity="1" fill-opacity="0" stroke="#000000" stroke-width="1" stroke-opacity="0"></use></g></g><g><use xlink:href="#a97kTGHQV1" opacity="1" fill="#34238c" fill-opacity="1"></use><g><use xlink:href="#a97kTGHQV1" opacity="1" fill-opacity="0" stroke="#000000" stroke-width="1" stroke-opacity="0"></use></g></g><g><use xlink:href="#fzt4KMrIe" opacity="1" fill="#34238c" fill-opacity="1"></use><g><use xlink:href="#fzt4KMrIe" opacity="1" fill-opacity="0" stroke="#000000" stroke-width="1" stroke-opacity="0"></use></g></g><g><use xlink:href="#a2pLk1ede0" opacity="1" fill="#34238c" fill-opacity="1"></use><g><use xlink:href="#a2pLk1ede0" opacity="1" fill-opacity="0" stroke="#000000" stroke-width="1" stroke-opacity="0"></use></g></g><g><use xlink:href="#a5kX7ZP946" opacity="1" fill="#34238c" fill-opacity="1"></use><g><use xlink:href="#a5kX7ZP946" opacity="1" fill-opacity="0" stroke="#000000" stroke-width="1" stroke-opacity="0"></use></g></g><g><use xlink:href="#a1tNTXSrUm" opacity="1" fill="#34238c" fill-opacity="1"></use><g><use xlink:href="#a1tNTXSrUm" opacity="1" fill-opacity="0" stroke="#000000" stroke-width="1" stroke-opacity="0"></use></g></g><g><use xlink:href="#b2Yw5c4oZR" opacity="1" fill="#34238c" fill-opacity="1"></use><g><use xlink:href="#b2Yw5c4oZR" opacity="1" fill-opacity="0" stroke="#000000" stroke-width="1" stroke-opacity="0"></use></g></g><g><use xlink:href="#cezYQiJfq" opacity="1" fill="#34238c" fill-opacity="1"></use><g><use xlink:href="#cezYQiJfq" opacity="1" fill-opacity="0" stroke="#000000" stroke-width="1" stroke-opacity="0"></use></g></g><g><use xlink:href="#b3l8UkR6WE" opacity="1" fill="#34238c" fill-opacity="1"></use><g><use xlink:href="#b3l8UkR6WE" opacity="1" fill-opacity="0" stroke="#000000" stroke-width="1" stroke-opacity="0"></use></g></g><g><use xlink:href="#cbYWdYPTJy" opacity="1" fill="#34238c" fill-opacity="1"></use><g><use xlink:href="#cbYWdYPTJy" opacity="1" fill-opacity="0" stroke="#000000" stroke-width="1" stroke-opacity="0"></use></g></g><g><use xlink:href="#bGByRFGl4" opacity="1" fill="#34238c" fill-opacity="1"></use><g><use xlink:href="#bGByRFGl4" opacity="1" fill-opacity="0" stroke="#000000" stroke-width="1" stroke-opacity="0"></use></g></g><g><use xlink:href="#a1SMRuNm57" opacity="1" fill="#34238c" fill-opacity="1"></use><g><use xlink:href="#a1SMRuNm57" opacity="1" fill-opacity="0" stroke="#000000" stroke-width="1" stroke-opacity="0"></use></g></g><g><use xlink:href="#aIkm0BSRB" opacity="1" fill="#34238c" fill-opacity="1"></use><g><use xlink:href="#aIkm0BSRB" opacity="1" fill-opacity="0" stroke="#000000" stroke-width="1" stroke-opacity="0"></use></g></g><g><use xlink:href="#aD950RW9" opacity="1" fill="#34238c" fill-opacity="1"></use><g><use xlink:href="#aD950RW9" opacity="1" fill-opacity="0" stroke="#000000" stroke-width="1" stroke-opacity="0"></use></g></g><g><use xlink:href="#badXhHgEW" opacity="1" fill="#34238c" fill-opacity="1"></use><g><use xlink:href="#badXhHgEW" opacity="1" fill-opacity="0" stroke="#000000" stroke-width="1" stroke-opacity="0"></use></g></g><g><use xlink:href="#hw8zGpX5w" opacity="1" fill="#34238c" fill-opacity="1"></use><g><use xlink:href="#hw8zGpX5w" opacity="1" fill-opacity="0" stroke="#000000" stroke-width="1" stroke-opacity="0"></use></g></g><g><use xlink:href="#a1M2jICwkM" opacity="1" fill="#34238c" fill-opacity="1"></use><g><use xlink:href="#a1M2jICwkM" opacity="1" fill-opacity="0" stroke="#000000" stroke-width="1" stroke-opacity="0"></use></g></g></g></g></svg>