<?xml version="1.0"?>
<svg xmlns="http://www.w3.org/2000/svg" xmlns:xlink="http://www.w3.org/1999/xlink" version="1.1" id="Capa_1" x="0px" y="0px" viewBox="0 0 512 512" style="enable-background:new 0 0 512 512;" xml:space="preserve" width="512px" height="512px" class=""><g><g>
	<g>
		<path d="M375.71,356.744c-1.79-2.27-44.687-55.622-119.71-55.622s-117.92,53.351-119.71,55.622l31.42,24.756    c0.318-0.404,32.458-40.378,88.29-40.378c55.147,0,87.024,38.807,88.354,40.458l-0.064-0.08L375.71,356.744z" data-original="#000000" class="active-path" data-old_color="#000000" fill="#000F3F"/>
	</g>
</g><g>
	<g>
		<path d="M437.02,74.98C388.667,26.629,324.38,0,256,0S123.333,26.629,74.98,74.98C26.629,123.333,0,187.62,0,256    s26.629,132.668,74.98,181.02C123.333,485.371,187.62,512,256,512s132.667-26.629,181.02-74.98    C485.371,388.668,512,324.38,512,256S485.371,123.333,437.02,74.98z M256,472c-119.103,0-216-96.897-216-216S136.897,40,256,40    s216,96.897,216,216S375.103,472,256,472z" data-original="#000000" class="active-path" data-old_color="#000000" fill="#000F3F"/>
	</g>
</g><g>
	<g>
		<circle cx="168" cy="180.12" r="32" data-original="#000000" class="active-path" data-old_color="#000000" fill="#000F3F"/>
	</g>
</g><g>
	<g>
		<circle cx="344" cy="180.12" r="32" data-original="#000000" class="active-path" data-old_color="#000000" fill="#000F3F"/>
	</g>
</g></g> </svg>
