<?xml version="1.0"?>
<svg xmlns="http://www.w3.org/2000/svg" height="512px" viewBox="0 0 512 512" width="512px" class=""><g><path d="m511.953125 353.050781c.273437-3.921875-.972656-7.949219-3.816406-11.101562-23.578125-26.121094-57.125-41.953125-94.464844-44.578125-37.242187-2.617188-73.054687 8.273437-100.84375 30.667968l-11.121094 8.960938h-56.707031c-16.714844 0-31.320312 9.167969-39.078125 22.730469l-62.042969-34.707031c-11.402344-6.378907-24.570312-7.8125-37.078125-4.039063-12.503906 3.777344-22.679687 12.257813-28.648437 23.878906-11.773438 22.929688-3.386719 50.773438 19.085937 63.386719l181.417969 101.828125c2.242188 1.261719 4.773438 1.921875 7.34375 1.921875h211c8.285156 0 15-6.714844 15-15v-143c0-.320312-.027344-.632812-.046875-.949219zm-222.03125 128.949219-178-99.910156c-8.339844-4.683594-11.449219-15.015625-7.082031-23.523438 2.214844-4.3125 5.988281-7.457031 10.632812-8.859375 4.640625-1.398437 9.527344-.867187 13.757813 1.496094l71.75 40.144531c4.316406 20.339844 22.410156 35.652344 44.019531 35.652344h106c8.285156 0 15-6.714844 15-15s-6.714844-15-15-15h-106c-8.269531 0-15-6.730469-15-15s6.730469-15 15-15h62c3.425781 0 6.746094-1.171875 9.410156-3.320312l15.242188-12.28125c21.871094-17.625 50.253906-26.175782 79.914062-24.097657 27.546875 1.933594 52.335938 12.789063 70.433594 30.710938v123.988281zm0 0" data-original="#000000" class="active-path" data-old_color="#000000" fill="#000F3F"/><path d="m190 181v-15h15c8.285156 0 15-6.714844 15-15s-6.714844-15-15-15h-15v-15c0-8.285156-6.714844-15-15-15s-15 6.714844-15 15v15h-15c-8.285156 0-15 6.714844-15 15s6.714844 15 15 15h15v15c0 8.285156 6.714844 15 15 15s15-6.714844 15-15zm0 0" data-original="#000000" class="active-path" data-old_color="#000000" fill="#000F3F"/><path d="m175 302c3.820312 0 7.636719-1.449219 10.5625-4.351562l136.613281-135.472657c17.941407-17.945312 27.824219-41.800781 27.824219-67.175781s-9.882812-49.230469-27.824219-67.175781c-17.945312-17.941407-41.800781-27.824219-67.175781-27.824219s-49.230469 9.882812-67.175781 27.824219l-12.824219 12.824219-12.824219-12.824219c-17.945312-17.941407-41.800781-27.824219-67.175781-27.824219s-49.230469 9.882812-67.175781 27.824219c-17.941407 17.945312-27.824219 41.800781-27.824219 67.175781s9.882812 49.230469 27.871094 67.21875l136.566406 135.429688c2.925781 2.902343 6.742188 4.351562 10.5625 4.351562zm-145-207c0-17.359375 6.761719-33.683594 19.039062-45.960938 12.671876-12.675781 29.3125-19.007812 45.960938-19.007812 16.644531 0 33.292969 6.335938 45.960938 19.007812l23.429687 23.429688c2.8125 2.8125 6.628906 4.394531 10.609375 4.394531 3.976562 0 7.792969-1.578125 10.605469-4.394531l23.429687-23.429688c25.347656-25.34375 66.582032-25.347656 91.925782 0 12.277343 12.277344 19.039062 28.601563 19.039062 45.960938 0 17.363281-6.761719 33.683594-18.992188 45.917969l-126.007812 124.957031-125.960938-124.914062c-12.277343-12.277344-19.039062-28.597657-19.039062-45.960938zm0 0" data-original="#000000" class="active-path" data-old_color="#000000" fill="#000F3F"/></g> </svg>
