<?xml version="1.0"?>
<svg xmlns="http://www.w3.org/2000/svg" height="512px" viewBox="0 0 512 512" width="512px" class=""><g><path d="m488.339844 32.152344c-16.128906-20.734375-37.910156-32.152344-61.339844-32.152344s-45.210938 11.417969-61.339844 32.152344c-15.257812 19.617187-23.660156 45.488281-23.660156 72.847656s8.402344 53.230469 23.660156 72.847656c12.621094 16.230469 28.710938 26.75 46.339844 30.554688v147.597656c0 69.476562-56.523438 126-126 126s-126-56.523438-126-126v-66h115c8.285156 0 15-6.714844 15-15v-260c0-8.285156-6.714844-15-15-15h-260c-8.285156 0-15 6.714844-15 15v260c0 8.285156 6.714844 15 15 15h115v66c0 86.019531 69.980469 156 156 156s156-69.980469 156-156v-147.597656c17.628906-3.808594 33.714844-14.328125 46.339844-30.554688 15.257812-19.617187 23.660156-45.488281 23.660156-72.847656s-8.402344-53.230469-23.660156-72.847656zm-458.339844-2.152344h230v230h-230zm434.65625 129.429688c-10.316406 13.265624-23.6875 20.570312-37.65625 20.570312s-27.339844-7.304688-37.65625-20.570312c-11.183594-14.378907-17.34375-33.707032-17.34375-54.429688s6.160156-40.050781 17.34375-54.429688c10.316406-13.265624 23.6875-20.570312 37.65625-20.570312s27.339844 7.304688 37.65625 20.570312c11.183594 14.378907 17.34375 33.707032 17.34375 54.429688s-6.160156 40.050781-17.34375 54.429688zm0 0" data-original="#000000" class="active-path" data-old_color="#000000" fill="#000F3F"/><path d="m224.179688 333.179688c-17.542969 17.546874-17.542969 46.09375.046874 63.683593l51.210938 50.789063c2.921875 2.898437 6.742188 4.347656 10.5625 4.347656s7.640625-1.449219 10.5625-4.347656l51.257812-50.832032c17.546876-17.546874 17.546876-46.09375 0-63.640624-16.953124-16.949219-44.175781-17.523438-61.820312-1.722657-17.644531-15.800781-44.867188-15.226562-61.820312 1.722657zm81.214843 21.214843c2.832031-2.832031 6.597657-4.394531 10.605469-4.394531s7.773438 1.5625 10.605469 4.394531 4.394531 6.597657 4.394531 10.605469-1.5625 7.773438-4.351562 10.5625l-40.648438 40.3125-40.605469-40.269531c-2.832031-2.832031-4.394531-6.597657-4.394531-10.605469s1.5625-7.773438 4.394531-10.605469 6.597657-4.394531 10.605469-4.394531 7.773438 1.5625 10.605469 4.394531l8.789062 8.785157c5.855469 5.859374 15.351563 5.859374 21.210938 0zm0 0" data-original="#000000" class="active-path" data-old_color="#000000" fill="#000F3F"/><path d="m230 145c0-46.867188-38.132812-85-85-85s-85 38.132812-85 85 38.132812 85 85 85 85-38.132812 85-85zm-140 0c0-30.328125 24.671875-55 55-55s55 24.671875 55 55-24.671875 55-55 55-55-24.671875-55-55zm0 0" data-original="#000000" class="active-path" data-old_color="#000000" fill="#000F3F"/><path d="m160 145v-20c0-8.285156-6.714844-15-15-15s-15 6.714844-15 15v20c0 8.285156 6.714844 15 15 15s15-6.714844 15-15zm0 0" data-original="#000000" class="active-path" data-old_color="#000000" fill="#000F3F"/></g> </svg>
