<?xml version="1.0"?>
<svg xmlns="http://www.w3.org/2000/svg" height="512px" viewBox="-45 0 512 512" width="512px"><g><path d="m364.621094 155.777344c2.539062 1.777344 5.546875 2.714844 8.605468 2.714844.867188 0 1.738282-.078126 2.605469-.230469 3.917969-.6875 7.398438-2.910157 9.683594-6.167969l34.414063-49.148438c4.75-6.785156 3.101562-16.136718-3.683594-20.890624l-73.726563-51.621094c-6.785156-4.753906-16.136719-3.105469-20.890625 3.683594l-34.414062 49.148437c-2.28125 3.257813-3.175782 7.292969-2.484375 11.207031.691406 3.917969 2.910156 7.402344 6.167969 9.683594l24.574218 17.207031-11.824218 16.890625c-26.019532-15.519531-55.808594-25.332031-87.648438-27.695312v-20.558594h30c8.285156 0 15-6.714844 15-15v-60c0-8.285156-6.714844-15-15-15h-90c-8.285156 0-15 6.714844-15 15v60c0 8.285156 6.714844 15 15 15h30v20.558594c-103.851562 7.699218-186 94.65625-186 200.441406 0 110.832031 90.167969 201 201 201s201-90.167969 201-201c0-62.609375-28.777344-118.617188-73.800781-155.511719l11.847656-16.917969zm-193.621094-125.777344h60v30h-60zm201 281c0 94.289062-76.710938 171-171 171s-171-76.710938-171-171 76.710938-171 171-171 171 76.710938 171 171zm-34.398438-247.390625 49.148438 34.417969-17.207031 24.574218-49.148438-34.417968zm0 0" data-original="#000000" class="active-path" data-old_color="#000000" fill="#000F3F"/><path d="m205.039062 248.039062-4.039062 4.035157-4.039062-4.035157c-25.34375-25.34375-66.578126-25.34375-91.921876 0s-25.34375 66.578126.042969 91.96875l85.355469 84.644532c2.921875 2.898437 6.742188 4.347656 10.5625 4.347656 3.816406 0 7.636719-1.449219 10.5625-4.347656l85.398438-84.691406c25.34375-25.34375 25.34375-66.578126 0-91.921876s-66.578126-25.34375-91.921876 0zm70.753907 70.664063-74.792969 74.171875-74.746094-74.125c-13.648437-13.648438-13.648437-35.851562 0-49.5 6.820313-6.824219 15.78125-10.234375 24.746094-10.234375s17.925781 3.414063 24.75 10.234375l14.644531 14.648438c2.8125 2.8125 6.628907 4.390624 10.609375 4.390624 3.976563 0 7.792969-1.578124 10.605469-4.390624l14.644531-14.648438c13.644532-13.644531 35.851563-13.644531 49.496094 0 13.644531 13.648438 13.644531 35.851562.042969 49.453125zm0 0" data-original="#000000" class="active-path" data-old_color="#000000" fill="#000F3F"/></g> </svg>
