<?xml version="1.0"?>
<svg xmlns="http://www.w3.org/2000/svg" height="512px" viewBox="-121 0 512 512.001" width="512px" class=""><g><path d="m217.125 270h17.875c8.285156 0 15-6.714844 15-15s-6.714844-15-15-15h-25v-30h25c8.285156 0 15-6.714844 15-15s-6.714844-15-15-15h-25v-30h25c8.285156 0 15-6.714844 15-15s-6.714844-15-15-15h-25v-30h25c8.285156 0 15-6.714844 15-15s-6.714844-15-15-15h-26.507812c-6.96875-34.191406-37.273438-60-73.492188-60-41.355469 0-75 33.644531-75 75v189.867188c-38.242188 25.597656-61.027344 69-59.9648438 115.289062.7812498 34.058594 14.6523438 66.472656 39.0585938 91.265625 24.410156 24.804687 56.597656 39.179687 90.636719 40.476563 1.78125.070312 3.558593.101562 5.335937.101562 35.105469 0 68.148438-13.28125 93.542969-37.726562 26.691406-25.691407 41.390625-60.238282 41.390625-97.273438 0-42.042969-19.894531-81.632812-52.875-107zm-9.320312 182.65625c-20.746094 19.972656-48.066407 30.355469-76.929688 29.265625-54.359375-2.074219-99.597656-48.035156-100.847656-102.453125-.878906-38.289062 19.234375-74.039062 52.492187-93.304688 4.628907-2.683593 7.480469-7.628906 7.480469-12.980468v-198.183594c0-24.8125 20.1875-45 45-45s45 20.1875 45 45v198.183594c0 5.351562 2.851562 10.296875 7.480469 12.980468 32.394531 18.765626 52.519531 53.570313 52.519531 90.835938 0 28.804688-11.433594 55.675781-32.195312 75.65625zm0 0" data-original="#000000" class="active-path" data-old_color="#000000" fill="#000F3F"/><path d="m150 334.578125v-167.578125c0-8.285156-6.714844-15-15-15s-15 6.714844-15 15v167.578125c-17.460938 6.191406-30 22.867187-30 42.421875 0 24.8125 20.1875 45 45 45s45-20.1875 45-45c0-19.554688-12.542969-36.230469-30-42.421875zm-15 57.421875c-8.269531 0-15-6.730469-15-15 0-8.273438 6.730469-15 15-15s15 6.726562 15 15c0 8.269531-6.726562 15-15 15zm0 0" data-original="#000000" class="active-path" data-old_color="#000000" fill="#000F3F"/></g> </svg>
